<svg width="32" height="32" viewBox="0 0 32 32" fill="none" xmlns="http://www.w3.org/2000/svg">
<mask id="mask0_68_1331" style="mask-type:luminance" maskUnits="userSpaceOnUse" x="0" y="0" width="32" height="32">
<path d="M32 0H0V32H32V0Z" fill="white"/>
</mask>
<g mask="url(#mask0_68_1331)">
<path d="M32 0H0V32H32V0Z" fill="#ECAD80"/>
<path d="M24.876 8.88404C25.824 9.43764 26.5592 10.2848 27.0128 11.2816C27.4872 11.0312 27.9464 10.7472 28.4272 10.5112C28.5704 10.4352 28.7792 10.5552 28.7456 10.7208C28.7624 10.8392 28.584 10.9216 28.5008 10.9792C28.0648 11.2192 27.6304 11.4624 27.1936 11.7016C27.3296 12.2512 27.452 12.7896 27.4528 13.36C27.448 14.388 27.1576 15.4088 26.5832 16.264C25.976 17.1872 25.0728 17.8992 24.04 18.2864C23.0592 18.6408 21.972 18.7088 20.96 18.4488C19.6368 18.1272 18.4552 17.2504 17.7592 16.0808C17.2744 15.2896 17.0128 14.3672 17.0152 13.44C16.9864 12.196 17.44 10.9512 18.248 10.0072C19.0144 9.10564 20.1072 8.45364 21.2776 8.25524C22.4976 8.01764 23.8064 8.25364 24.876 8.88404Z" fill="black"/>
<path d="M21.6161 8.66171C22.8881 8.50411 24.1553 8.84331 25.1649 9.63291C26.3217 10.5273 27.0265 11.9753 26.9897 13.4401C26.9913 15.2353 25.8857 16.9513 24.2537 17.6969C23.3769 18.1033 22.3945 18.2569 21.4401 18.0833C20.1073 17.8681 18.8865 17.0505 18.1809 15.8993C17.7521 15.2081 17.5113 14.4129 17.4625 13.6017C17.4137 12.4257 17.8145 11.2321 18.5729 10.3297C19.3273 9.41531 20.4417 8.81051 21.6161 8.66171Z" fill="white"/>
<path d="M8.88083 9.99286C9.90083 10.0473 10.8896 10.4673 11.6352 11.1649C12.4424 11.9169 12.9584 12.9785 13.0184 14.0825C13.0848 14.9985 12.8616 15.9169 12.3776 16.6969C11.7368 17.7433 10.6472 18.4913 9.43923 18.7081C8.38563 18.9065 7.25603 18.7025 6.34243 18.1401C5.33203 17.5273 4.59363 16.5001 4.34243 15.3449C4.15363 14.5921 4.21763 13.8305 4.42483 13.0897C4.12323 12.9665 3.82163 12.8473 3.51843 12.7305C3.36723 12.6673 3.19763 12.6145 3.09043 12.4833C3.05843 12.2913 3.15123 12.1697 3.34723 12.1937C3.76323 12.2937 4.14563 12.5305 4.56083 12.6393C4.67203 12.5073 4.74003 12.3345 4.82563 12.1849C5.62723 10.7601 7.25043 9.88646 8.88083 9.99286Z" fill="black"/>
<path d="M7.80069 10.5328C9.29029 10.1928 10.9007 10.808 11.8007 12.0376C12.2583 12.6528 12.5223 13.3968 12.5791 14.1592C12.6327 15.248 12.2239 16.3576 11.4543 17.1336C10.8167 17.7936 9.95189 18.2088 9.03989 18.3064C7.44469 18.4904 5.83349 17.5984 5.11909 16.164C4.49029 14.9408 4.56469 13.4264 5.30869 12.2696C5.86629 11.3872 6.77909 10.7504 7.80069 10.5328Z" fill="white"/>
<path d="M23.9426 11.4745C24.4418 11.4137 24.9578 11.5401 25.3618 11.8401C25.865 12.2121 26.1834 12.8113 26.1762 13.4409C26.1482 13.8233 26.0298 14.2129 25.8106 14.5305C25.4826 15.0209 24.909 15.3353 24.3226 15.3737C23.6658 15.4129 23.009 15.1113 22.6226 14.5761C22.141 13.9385 22.1234 12.9921 22.5722 12.3337C22.8794 11.8665 23.3906 11.5513 23.9426 11.4745ZM10.3562 12.5193C10.9338 12.4505 11.5394 12.6793 11.925 13.1169C12.2474 13.4745 12.4066 13.9185 12.3842 14.4001C12.3874 15.3601 11.529 16.2233 10.5602 16.1825C9.59216 16.1897 8.72976 15.3785 8.73056 14.4017C8.67376 13.4569 9.42417 12.6161 10.3562 12.5193Z" fill="black"/>
<path d="M26.2393 6.04722C26.3609 6.01522 26.5001 6.09522 26.6185 6.12482C26.6097 6.22082 26.6049 6.32082 26.5809 6.41362C26.4545 6.53282 26.2953 6.62242 26.1497 6.71602C24.3281 7.88402 22.4553 8.98802 20.5241 9.96642C19.6017 10.4248 18.6569 10.8704 17.6801 11.2016C17.1313 11.3768 16.5825 11.544 15.9993 11.4768C15.7345 11.452 15.5065 11.2352 15.5009 10.9624C15.4977 10.6248 15.7409 10.2744 15.9073 9.99042C16.0097 9.77602 16.2673 9.74722 16.4665 9.66082C19.4457 8.56082 22.4217 7.44882 25.4001 6.34482C25.6785 6.24642 25.9529 6.12002 26.2393 6.04722ZM4.79927 8.85122C7.18967 9.32642 9.60967 9.81362 12.0009 10.2928C12.1825 10.3184 12.3689 10.2984 12.5489 10.3288C12.7449 10.5128 12.8401 10.8256 12.9121 11.0784C13.0057 11.4056 12.9001 11.78 12.5993 11.9592C12.2793 12.1688 11.8065 12.132 11.4393 12.1104C10.7401 12.0304 10.0465 11.8064 9.38487 11.5712C7.81607 10.9984 6.28967 10.2168 4.82727 9.41362C4.69367 9.33682 4.53287 9.25842 4.44407 9.12962C4.41367 8.89922 4.59207 8.79682 4.79927 8.85122Z" fill="black"/>
<path d="M19.3746 19.6201C19.4986 19.5897 19.641 19.5401 19.769 19.5609C19.929 19.6233 19.9314 19.8017 19.8522 19.9321C19.5226 20.1417 19.0522 20.1569 18.7114 20.3233C18.985 21.4001 19.0122 22.5225 18.7122 23.5977C18.4506 24.5729 17.8946 25.5193 17.0546 26.1017C16.4906 26.5001 15.8066 26.6945 15.1178 26.6249C14.1962 26.5369 13.3818 25.9697 12.8354 25.2425C12.0754 24.2345 11.7674 23.0089 11.757 21.7601C11.7842 21.3105 11.8354 20.8633 11.9258 20.4217C11.7338 20.3593 11.4786 20.3313 11.3258 20.1945C11.281 20.0961 11.3098 19.9665 11.3058 19.8601C11.6674 19.8585 11.9698 19.9929 12.3186 20.0649C14.6826 20.5409 17.0778 20.3081 19.3746 19.6201Z" fill="black"/>
<path d="M18.2353 20.4089C18.6537 21.8257 18.4969 23.4833 17.7001 24.7425C17.3697 25.2609 16.9257 25.6993 16.3617 25.9561C15.7225 26.2545 14.9569 26.2305 14.3297 25.9113C13.6849 25.5905 13.1641 24.9985 12.8337 24.3665C12.2273 23.1929 12.0785 21.8057 12.3921 20.5241C13.2289 20.7233 14.0777 20.7681 14.9337 20.7857C14.8537 21.3249 14.8569 21.8569 14.8393 22.4001C14.8401 22.5529 14.8265 22.7273 14.8785 22.8737C14.9665 23.0105 15.2513 22.9697 15.2593 22.7889C15.3057 22.1161 15.2489 21.4489 15.3801 20.7785C16.3385 20.7585 17.2985 20.6017 18.2353 20.4089Z" fill="#EA869E"/>
</g>
</svg>
