<svg width="32" height="32" viewBox="0 0 32 32" fill="none" xmlns="http://www.w3.org/2000/svg">
<mask id="mask0_68_1476" style="mask-type:luminance" maskUnits="userSpaceOnUse" x="0" y="0" width="32" height="32">
<path d="M32 0H0V32H32V0Z" fill="white"/>
</mask>
<g mask="url(#mask0_68_1476)">
<path d="M32 0H0V32H32V0Z" fill="#ECAD80"/>
<path d="M22.3361 10.4968C23.2537 10.3672 24.2305 10.508 25.0561 10.9368C25.6649 11.2512 26.2001 11.7592 26.5049 12.3768C26.7729 12.9104 26.8105 13.548 26.6737 14.1224C26.5057 14.7648 26.0961 15.3352 25.5737 15.7384C24.3769 16.6784 22.6505 16.8864 21.2369 16.3584C20.5633 16.1048 19.9145 15.6472 19.5257 15.0344C19.3009 14.656 19.1081 14.2056 19.0969 13.76C19.0401 12.9968 19.3857 12.216 19.9185 11.6784C20.5625 11.008 21.4281 10.6408 22.3361 10.4968Z" fill="black"/>
<path d="M22.4135 10.9687C23.5311 10.8071 24.7911 11.0999 25.6039 11.9167C26.1319 12.4383 26.4319 13.2727 26.2135 14.0007C26.0487 14.6559 25.5991 15.1599 25.0511 15.5327C24.0559 16.1879 22.7327 16.3343 21.6023 15.9831C20.9119 15.7663 20.2383 15.3279 19.8671 14.6943C19.6255 14.2943 19.5359 13.8223 19.5799 13.3591C19.6407 12.8127 19.9423 12.3095 20.3303 11.9311C20.8943 11.3935 21.6455 11.0687 22.4135 10.9687Z" fill="white"/>
<path d="M7.23845 11.7367C8.64805 11.5215 10.2713 12.0103 11.0553 13.2671C11.4945 13.9479 11.5577 14.8671 11.2097 15.5991C10.9769 16.1047 10.5769 16.5303 10.1137 16.8335C9.52645 17.2135 8.85365 17.4015 8.16005 17.4567C6.98965 17.5023 5.77525 17.1135 5.00805 16.1935C4.59045 15.6919 4.35365 15.0575 4.40485 14.4007C4.44965 13.7391 4.77365 13.1415 5.24565 12.6855C5.79925 12.1687 6.49765 11.8671 7.23845 11.7367Z" fill="black"/>
<path d="M7.80405 12.1687C8.57525 12.1407 9.36885 12.3503 9.99365 12.8103C10.4049 13.1159 10.7488 13.5447 10.8888 14.0431C11.0177 14.5391 10.9721 15.0767 10.7169 15.5263C10.3393 16.2159 9.62405 16.6639 8.87925 16.8631C7.78325 17.1599 6.46645 16.9199 5.61525 16.1439C5.11285 15.6911 4.81445 15.0447 4.87685 14.3631C4.93525 13.9279 5.12805 13.5087 5.42485 13.1855C6.01205 12.5287 6.93365 12.1743 7.80405 12.1687Z" fill="white"/>
<path d="M21.7969 12.4488C22.0921 12.3848 22.3977 12.3928 22.6737 12.5256C23.1873 12.768 23.5121 13.36 23.3849 13.924C23.2809 14.504 22.7537 14.956 22.1609 14.952C21.4873 14.9896 20.8841 14.4304 20.8537 13.7608C20.8089 13.1656 21.2177 12.5936 21.7969 12.4488Z" fill="black"/>
<path d="M21.9695 12.8968C22.2895 12.8432 22.5959 12.944 22.7863 13.2136C23.0295 13.5384 22.9671 14.0024 22.6759 14.2752C22.3239 14.5912 21.7255 14.5424 21.4631 14.1336C21.1431 13.6672 21.4135 12.9984 21.9695 12.8968Z" fill="white"/>
<path d="M27.1762 12.9752C27.3114 13.0008 27.4674 12.956 27.5466 13.092C27.6754 13.2896 27.7362 13.5384 27.7746 13.7688C27.8898 14.6096 27.597 15.512 26.9882 16.108C26.7266 16.3496 26.3626 16.5856 25.9978 16.5968C25.7794 16.6 25.6562 16.3872 25.8114 16.2128C26.073 16.084 26.3346 16.044 26.5666 15.848C27.0698 15.4272 27.3378 14.7264 27.3322 14.0792C27.3314 13.7576 27.2058 13.5024 27.1194 13.2024C27.1378 13.1264 27.157 13.0504 27.1762 12.9752ZM8.1153 13.3168C8.4705 13.2512 8.8513 13.3568 9.1297 13.5848C9.5897 13.9512 9.7449 14.6312 9.5049 15.1656C9.3001 15.64 8.8457 15.9832 8.3193 15.984C7.6433 16.0296 7.0441 15.4704 7.0041 14.8008C6.9249 14.1032 7.4249 13.4376 8.1153 13.3168Z" fill="black"/>
<path d="M8.04244 13.8232C8.44884 13.6704 8.91763 13.8712 9.07603 14.2768C9.30243 14.7952 8.95444 15.4536 8.38164 15.5112C8.04164 15.5488 7.77283 15.4104 7.58883 15.1256C7.31363 14.6544 7.52564 14.0144 8.04244 13.8232Z" fill="white"/>
<path d="M4.11528 14.528C4.15048 14.8528 4.00248 15.1224 3.98168 15.4392C3.96248 15.9256 4.17928 16.4104 4.56488 16.7104C4.76008 16.8624 4.97448 16.936 5.18728 17.0536C5.34328 17.1216 5.33448 17.216 5.31368 17.3672C5.19288 17.5096 5.04888 17.484 4.88888 17.4312C4.30648 17.2144 3.80488 16.7432 3.61288 16.1448C3.44968 15.6552 3.47128 15.0568 3.72168 14.6016C3.82248 14.452 3.96488 14.5312 4.11528 14.528Z" fill="black"/>
<path d="M19.5393 4.9888C20.0329 4.9552 20.5865 4.94 21.0153 5.2248C21.3097 5.42 21.4473 5.7328 21.3737 6.084C21.2497 6.5768 20.8441 6.9576 20.4449 7.244C19.7273 7.7472 18.8681 8.0632 17.9993 8.1664C17.5505 8.2088 16.9993 8.2008 16.6017 7.9624C16.3113 7.792 16.1297 7.4728 16.1857 7.1336C16.2673 6.6736 16.6249 6.2944 16.9809 6.0168C17.7161 5.4544 18.6249 5.1096 19.5393 4.9888ZM9.0577 6.3384C9.7865 6.3096 10.5225 6.3792 11.1625 6.7576C11.4705 6.9384 11.7497 7.2288 11.7937 7.5968C11.8209 7.9336 11.6369 8.2208 11.3785 8.4184C11.0169 8.7024 10.5889 8.8184 10.1441 8.8976C9.3481 8.9792 8.5001 8.9232 7.7857 8.5312C7.4761 8.348 7.1553 8.0632 7.1081 7.6856C7.0497 7.344 7.2697 7.008 7.5393 6.8184C7.9713 6.5088 8.5337 6.3632 9.0577 6.3384Z" fill="black"/>
<path d="M14.6584 18.4609C15.1296 18.5681 15.6168 18.8225 15.9136 19.2113C16.0136 19.3913 15.916 19.6121 15.692 19.5817C15.5112 19.4825 15.3752 19.3113 15.2016 19.1977C14.8568 18.9681 14.4128 18.8393 13.9992 18.9033C13.7936 18.9401 13.5704 19.0313 13.4528 19.2129C13.3304 19.3801 13.3496 19.5937 13.4208 19.7769C13.5584 20.1321 13.9008 20.4065 14.2408 20.5553C14.4248 20.6401 14.6608 20.6577 14.824 20.7753C14.9592 20.9193 14.8704 21.1241 14.6856 21.1577C14.3168 21.2401 13.9928 21.3705 13.756 21.6785C13.3152 22.2129 13.3776 23.0145 13.864 23.4977C14.3544 24.0313 15.2408 24.0985 15.8048 23.6457C15.9992 23.4961 16.092 23.2977 16.248 23.1193C16.4856 23.0041 16.6536 23.2025 16.5656 23.4321C16.196 24.2137 15.208 24.5913 14.3952 24.3441C13.6808 24.1513 13.1264 23.5345 13.0144 22.8025C12.8904 22.0473 13.2696 21.3113 13.9192 20.9241C13.4608 20.6881 13.0544 20.2953 12.9296 19.7817C12.8064 19.3577 12.9928 18.8801 13.3656 18.6457C13.7408 18.3857 14.2264 18.3929 14.6584 18.4609Z" fill="black"/>
</g>
</svg>
