<svg width="32" height="32" viewBox="0 0 32 32" fill="none" xmlns="http://www.w3.org/2000/svg">
<mask id="mask0_68_1496" style="mask-type:luminance" maskUnits="userSpaceOnUse" x="0" y="0" width="32" height="32">
<path d="M32 0H0V32H32V0Z" fill="white"/>
</mask>
<g mask="url(#mask0_68_1496)">
<path d="M32 0H0V32H32V0Z" fill="#763900"/>
<path d="M24.8247 8.85435C25.8599 9.44714 26.696 10.4087 27.1016 11.5335C27.5591 12.6823 27.5591 13.9831 27.1447 15.1439C27.0615 15.3751 26.9144 15.5615 26.6424 15.5255C25.436 15.4671 24.2439 15.5367 23.0375 15.5703C22.2351 15.6575 21.4343 15.7423 20.6375 15.8735C19.8015 16.0191 18.9879 16.2039 18.1591 16.3599C17.8135 16.3503 17.7375 16.0215 17.5863 15.7735C16.6215 13.9375 16.8887 11.5751 18.2479 10.0071C19.0311 9.08555 20.1551 8.42555 21.3543 8.24235C22.5327 8.03035 23.7879 8.25995 24.8247 8.85435Z" fill="black"/>
<path d="M22.32 8.62869C23.476 8.62789 24.624 9.11109 25.4704 9.89109C26.272 10.6311 26.7928 11.6399 26.9512 12.7183C27.0472 13.5191 26.9792 14.3311 26.6752 15.0831C26.5872 15.0727 26.5 15.0631 26.4128 15.0535C26.5464 14.6439 26.6312 14.2503 26.524 13.8215C26.3704 12.9567 25.6648 12.2511 24.7968 12.1095C24.3688 12.0599 23.9456 12.0767 23.5512 12.2655C22.9096 12.5495 22.444 13.1519 22.3256 13.8431C22.2384 14.3007 22.324 14.7567 22.52 15.1743C21.604 15.2575 20.7008 15.3967 19.8008 15.5887C19.2616 15.6863 18.732 15.8479 18.188 15.9183C17.6 14.9559 17.3208 13.7527 17.5248 12.6359C17.6912 11.5671 18.2368 10.5647 19.0416 9.84229C19.928 9.04309 21.1248 8.58949 22.32 8.62869Z" fill="white"/>
<path d="M9.04156 10.0055C10.0424 10.0927 11.0032 10.5399 11.7176 11.2447C12.4752 11.9863 12.9616 13.0183 13.0176 14.0799C13.0816 14.9391 12.8904 15.8007 12.4648 16.5495C12.3744 16.6999 12.2352 16.8711 12.064 16.9263C11.8224 16.9911 11.5368 16.9135 11.296 16.8599C10.6008 16.6919 9.90156 16.5519 9.19356 16.4455C8.16316 16.3783 7.10716 16.3743 6.07676 16.4511C5.69276 16.4767 5.29436 16.5575 4.91196 16.5303C4.72636 16.4439 4.61596 16.1943 4.54636 16.0127C4.27676 15.3063 4.14796 14.5143 4.28076 13.7631C4.44236 12.5599 5.12956 11.4559 6.12716 10.7671C6.97116 10.1847 8.01996 9.90074 9.04156 10.0055Z" fill="black"/>
<path d="M9.79831 10.6191C10.8215 10.9319 11.6927 11.6727 12.1647 12.6335C12.5359 13.3839 12.6887 14.2751 12.5095 15.0991C12.4055 15.5951 12.2447 16.1279 11.9391 16.5391L11.6079 16.4839C11.9383 16.1247 12.1607 15.6959 12.1535 15.1975C12.1839 14.3583 11.5903 13.5991 10.7791 13.4023C9.91911 13.1679 8.97671 13.6679 8.65831 14.4935C8.45431 14.9679 8.50471 15.4615 8.68471 15.9327C8.07671 15.9559 7.48311 15.9031 6.87751 15.9631C6.29271 16.0151 5.70711 16.0527 5.12311 16.1071C5.07031 16.0159 5.01671 15.9271 4.97191 15.8311C4.39191 14.4159 4.73751 12.7327 5.80231 11.6423C6.81351 10.5879 8.40311 10.1711 9.79831 10.6191Z" fill="white"/>
<path d="M26.2393 6.04722C26.3609 6.01522 26.5001 6.09522 26.6185 6.12482C26.6097 6.22082 26.6049 6.32082 26.5809 6.41362C26.4545 6.53282 26.2953 6.62242 26.1497 6.71602C24.3281 7.88402 22.4553 8.98802 20.5241 9.96642C19.6017 10.4248 18.6569 10.8704 17.6801 11.2016C17.1313 11.3768 16.5825 11.544 15.9993 11.4768C15.7345 11.452 15.5065 11.2352 15.5009 10.9624C15.4977 10.6248 15.7409 10.2744 15.9073 9.99042C16.0097 9.77602 16.2673 9.74722 16.4665 9.66082C19.4457 8.56082 22.4217 7.44882 25.4001 6.34482C25.6785 6.24642 25.9529 6.12002 26.2393 6.04722ZM4.79927 8.85122C7.18967 9.32642 9.60967 9.81362 12.0009 10.2928C12.1825 10.3184 12.3689 10.2984 12.5489 10.3288C12.7449 10.5128 12.8401 10.8256 12.9121 11.0784C13.0057 11.4056 12.9001 11.78 12.5993 11.9592C12.2793 12.1688 11.8065 12.132 11.4393 12.1104C10.7401 12.0304 10.0465 11.8064 9.38487 11.5712C7.81607 10.9984 6.28967 10.2168 4.82727 9.41362C4.69367 9.33682 4.53287 9.25842 4.44407 9.12962C4.41367 8.89922 4.59207 8.79682 4.79927 8.85122Z" fill="black"/>
<path d="M18.0841 23.0104C18.4577 23.1128 18.7937 23.3872 19.0569 23.664C19.1665 23.7968 19.3417 23.9744 19.3009 24.16C19.2641 24.3568 19.0009 24.4016 18.8969 24.2264C18.6897 23.944 18.4553 23.7032 18.1409 23.54C17.9593 23.4232 17.6033 23.4976 17.6121 23.2088C17.6505 22.9672 17.8937 22.9768 18.0841 23.0104ZM17.5201 24.0768C17.9177 24.1976 18.1961 24.5456 18.2225 24.9616C18.3265 26.016 17.4713 27.0256 16.4825 27.2968C15.4857 27.5896 14.1729 27.2088 13.6769 26.2432C13.4793 25.9064 13.3785 25.5024 13.5217 25.1264C13.6641 24.8024 13.9873 24.6736 14.3193 24.6384C14.7265 24.5912 15.0833 24.7272 15.4313 24.9216C15.7369 24.5984 16.0505 24.3144 16.4641 24.1368C16.7897 23.996 17.1809 23.9784 17.5201 24.0768Z" fill="black"/>
<path d="M17.593 24.6473C17.853 24.9177 17.7738 25.4073 17.6306 25.7185C17.2882 26.5225 16.4218 27.0089 15.5586 26.9177C14.9746 26.8225 14.4138 26.5889 14.1026 26.0569C13.9882 25.8521 13.8282 25.5305 13.9418 25.3017C14.1242 25.0009 14.6434 25.0481 14.9242 25.1569C15.1442 25.2185 15.3666 25.4841 15.5954 25.4441C15.889 25.1593 16.1138 24.8465 16.4898 24.6537C16.8354 24.4617 17.2602 24.3897 17.593 24.6473Z" fill="#8F2E45"/>
</g>
</svg>
