<svg width="32" height="32" viewBox="0 0 32 32" fill="none" xmlns="http://www.w3.org/2000/svg">
<mask id="mask0_68_1512" style="mask-type:luminance" maskUnits="userSpaceOnUse" x="0" y="0" width="32" height="32">
<path d="M32 0H0V32H32V0Z" fill="white"/>
</mask>
<g mask="url(#mask0_68_1512)">
<path d="M32 0H0V32H32V0Z" fill="#ECAD80"/>
<path d="M21.7039 8.19035C23.5367 7.99755 25.3991 8.82955 26.4647 10.3335C27.1351 11.2559 27.4727 12.3831 27.4519 13.5207C27.4159 14.3975 27.1863 15.2607 26.7375 16.0175C26.0551 17.1895 24.8951 18.0871 23.5807 18.4279C22.4879 18.7223 21.3079 18.6495 20.2599 18.2223C19.1679 17.7767 18.2407 16.9615 17.6703 15.9287C17.0775 14.8927 16.8943 13.6719 17.0831 12.4991C17.2623 11.4503 17.7639 10.4695 18.5159 9.71595C19.3663 8.85435 20.4975 8.30955 21.7039 8.19035Z" fill="black"/>
<path d="M21.6208 8.66076C22.8328 8.51276 24.0432 8.81196 25.0304 9.53196C26.2648 10.416 27.0304 11.9192 26.9888 13.44C26.9928 15.2552 25.8592 16.988 24.2 17.7216C23.3368 18.1096 22.3752 18.2536 21.44 18.0832C20.128 17.872 18.9208 17.0728 18.212 15.9496C17.764 15.2472 17.5128 14.4336 17.4624 13.604C17.4144 12.4472 17.8008 11.2712 18.5352 10.3752C19.2912 9.43516 20.4264 8.80956 21.6208 8.66076Z" fill="white"/>
<path d="M8.17915 10.0079C9.19915 9.9015 10.2496 10.1623 11.0984 10.7383C12.0936 11.4055 12.7912 12.4911 12.976 13.6767C13.0696 14.3311 13.044 15.0287 12.8432 15.6623C12.5328 16.7047 11.8199 17.6127 10.8839 18.1655C10.0487 18.6631 9.04475 18.8767 8.07995 18.7439C6.81675 18.5991 5.65195 17.8647 4.95835 16.8015C4.51515 16.1359 4.28155 15.3591 4.22955 14.5639C4.20555 13.5791 4.49035 12.5927 5.07515 11.7959C5.79835 10.7935 6.94955 10.1319 8.17915 10.0079Z" fill="black"/>
<path d="M7.8 10.5335C9.3088 10.1871 10.94 10.8247 11.8336 12.0823C12.4672 12.9647 12.7472 14.1431 12.4872 15.2063C12.3248 15.9871 11.9144 16.7095 11.332 17.2527C10.6896 17.8655 9.8432 18.2351 8.9608 18.3151C7.3704 18.4615 5.7864 17.5527 5.0952 16.1159C4.4728 14.8631 4.5824 13.3239 5.3736 12.1711C5.9352 11.3391 6.8184 10.7415 7.8 10.5335Z" fill="white"/>
<path d="M23.7927 11.3919C24.2519 11.2575 24.7759 11.2959 25.2063 11.5111C26.0047 11.8871 26.5415 12.9023 26.2399 13.7623C26.0727 14.4343 25.5351 14.9807 24.8655 15.1583C24.3415 15.2919 23.7711 15.2223 23.3103 14.9311C22.5991 14.4919 22.2271 13.5927 22.4535 12.7823C22.6199 12.1175 23.1391 11.5895 23.7927 11.3919ZM10.3567 12.5191C11.3759 12.3903 12.3599 13.2031 12.3823 14.2383C12.4687 15.2287 11.6415 16.1759 10.6399 16.1815C9.64151 16.2303 8.72951 15.4095 8.73031 14.4007C8.67351 13.4567 9.42551 12.6143 10.3567 12.5191Z" fill="black"/>
<path d="M19.5392 4.9888C20.0328 4.9552 20.5864 4.94 21.0152 5.2248C21.3096 5.42 21.4472 5.7328 21.3736 6.084C21.2496 6.5768 20.844 6.9576 20.4448 7.244C19.7272 7.7472 18.868 8.0632 17.9992 8.1664C17.5504 8.2088 16.9992 8.2008 16.6016 7.9624C16.3112 7.792 16.1296 7.4728 16.1856 7.1336C16.2672 6.6736 16.6248 6.2944 16.9808 6.0168C17.716 5.4544 18.6248 5.1096 19.5392 4.9888ZM9.05758 6.3384C9.78638 6.3096 10.5224 6.3792 11.1624 6.7576C11.4704 6.9384 11.7496 7.2288 11.7936 7.5968C11.8208 7.9336 11.6368 8.2208 11.3784 8.4184C11.0168 8.7024 10.5888 8.8184 10.144 8.8976C9.34798 8.9792 8.49998 8.9232 7.78558 8.5312C7.47598 8.348 7.15518 8.0632 7.10798 7.6856C7.04958 7.344 7.26958 7.008 7.53918 6.8184C7.97118 6.5088 8.53358 6.3632 9.05758 6.3384Z" fill="black"/>
<path d="M19.5056 19.2832C20.3808 19.392 21.2536 19.84 21.6832 20.6392C21.9544 21.14 22.0744 21.7776 21.9464 22.3368C21.8304 23.1648 21.3448 23.9408 20.7864 24.5464C19.8432 25.536 18.5584 26.2048 17.2024 26.3896C16.064 26.5848 14.8728 26.4912 13.772 26.1488C13.072 25.9248 12.444 25.5464 11.8672 25.0968C11.2024 24.556 10.6048 23.8688 10.3008 23.0584C10.1288 22.6224 10.0848 22.1376 10.1592 21.676C10.2552 21.124 10.6736 20.6664 11.184 20.4552C11.7232 20.2376 12.3096 20.1944 12.8792 20.3088C13.6008 20.4056 14.2192 20.712 14.856 21.0424C16.0288 19.8296 17.8104 19.076 19.5056 19.2832Z" fill="black"/>
<path d="M19.1199 19.724C19.8247 19.7488 20.5143 19.9872 21.0143 20.4984C20.7735 20.7888 20.4679 21.004 20.1335 21.1744C19.9991 21.2472 19.8431 21.3104 19.7295 21.4136C19.5351 21.6512 19.4407 22.0696 19.1975 22.2528C18.9143 22.1632 18.6551 21.9464 18.4031 21.7888C17.2487 22.0624 16.0655 22.1792 14.8799 22.1552C13.9959 22.1736 13.1167 22.1016 12.2447 21.9576C12.0999 21.936 11.9175 21.8784 11.7767 21.9312C11.6023 22.0464 11.4615 22.2184 11.3119 22.364C11.1655 22.1368 11.0175 21.9104 10.8751 21.68C10.8023 21.6464 10.7295 21.6136 10.6567 21.58C10.8751 21.1008 11.3263 20.8192 11.8383 20.7504C12.7727 20.6192 13.7655 20.9608 14.5591 21.4384C14.7151 21.52 14.8479 21.6248 15.0215 21.5088C15.2479 21.336 15.4343 21.1152 15.6623 20.9424C16.6183 20.1752 17.8831 19.6656 19.1199 19.724Z" fill="white"/>
<path d="M21.3072 20.9056C21.5144 21.3664 21.5647 21.82 21.4783 22.3184C21.3207 23.08 20.9136 23.7416 20.372 24.2912C19.5064 25.1936 18.2584 25.7392 17.0384 25.9408C16.1448 26.0504 15.196 26.0456 14.3232 25.8056C13.1472 25.496 12.0736 24.8408 11.3152 23.8824C10.8976 23.34 10.5816 22.7512 10.5656 22.0504C10.7728 22.264 10.8752 22.5488 11.0704 22.7672C11.4072 23.0296 11.6888 22.5984 11.9112 22.3944C13.3216 22.5936 14.8208 22.7432 16.24 22.5832C16.9456 22.5504 17.6392 22.4336 18.3312 22.2984C18.6272 22.4128 18.9976 22.772 19.3464 22.6936C19.8296 22.5136 19.8312 21.7464 20.3272 21.6048C20.6248 21.4616 20.8912 21.28 21.1368 21.0592C21.1936 21.0088 21.2504 20.9576 21.3072 20.9056Z" fill="#8F2E45"/>
</g>
</svg>
