<svg width="32" height="32" viewBox="0 0 32 32" fill="none" xmlns="http://www.w3.org/2000/svg">
<mask id="mask0_68_1530" style="mask-type:luminance" maskUnits="userSpaceOnUse" x="0" y="0" width="32" height="32">
<path d="M32 0H0V32H32V0Z" fill="white"/>
</mask>
<g mask="url(#mask0_68_1530)">
<path d="M32 0H0V32H32V0Z" fill="#763900"/>
<path d="M8.09927 10.0176C9.16327 9.88484 10.2681 10.1576 11.1481 10.772C12.1129 11.4384 12.7849 12.5 12.9737 13.6568C13.0689 14.3192 13.0481 15.0224 12.8433 15.6632C12.5273 16.7232 11.7945 17.6448 10.8345 18.1952C10.0337 18.6576 9.07607 18.864 8.15687 18.7536C6.86567 18.628 5.66567 17.8872 4.95847 16.8016C4.51527 16.1352 4.28167 15.3584 4.22967 14.5632C4.20567 13.5792 4.49047 12.5936 5.07447 11.7976C5.78087 10.8176 6.89847 10.1592 8.09927 10.0176Z" fill="black"/>
<path d="M7.9392 10.5033C9.49279 10.2113 11.128 10.9377 11.964 12.2761C12.4936 13.1153 12.7232 14.1841 12.4976 15.1585C12.292 16.2233 11.6208 17.1737 10.6984 17.7401C10.1496 18.0825 9.5224 18.2721 8.8792 18.3225C7.2936 18.4305 5.736 17.5049 5.0696 16.0617C4.4488 14.7673 4.608 13.1809 5.4712 12.0345C6.0616 11.2321 6.96 10.6809 7.9392 10.5033Z" fill="white"/>
<path d="M24.8794 12.2328C25.9258 12.1856 27.0378 12.1312 28.0674 12.3512C28.2394 12.3976 28.2994 12.4576 28.2506 12.6456C28.0826 12.7864 27.7634 12.9096 27.7042 13.1352C27.7018 13.6152 28.4282 13.6072 28.4794 13.9992C28.4562 14.2352 28.2858 14.2656 28.0818 14.2504C27.4682 14.2 26.8562 14.1512 26.2402 14.1376C24.9586 14.1304 23.6786 14.1192 22.3994 14.208C21.7946 14.264 21.1826 14.2584 20.5778 14.3016C19.689 14.384 18.8074 14.4064 17.9266 14.5704C17.713 14.6096 17.4858 14.6592 17.2682 14.6552C17.1074 14.556 17.0242 14.212 17.2234 14.1064C17.6498 13.8648 18.1298 13.6984 18.5978 13.5568C19.8042 13.1592 21.0586 12.8968 22.2986 12.6256C23.1498 12.432 24.013 12.3248 24.8794 12.2328ZM10.1146 12.6144C10.3914 12.5424 10.6674 12.5352 10.9466 12.5976C11.6546 12.7648 12.1818 13.432 12.1714 14.1616C12.1906 15.0512 11.369 15.8552 10.4762 15.772C9.73379 15.7304 9.07779 15.1424 8.97539 14.4024C8.83859 13.6184 9.35379 12.8288 10.1146 12.6144Z" fill="black"/>
<path d="M21.2824 4.51995C23.2584 4.59515 25.1256 5.23755 26.8384 6.19915C27.0192 6.30475 27.232 6.39835 27.3816 6.54555C27.4856 6.73675 27.3512 6.95595 27.1256 6.88075C25.7992 6.38395 24.4408 6.11035 23.0408 5.91915C21.4168 5.73195 19.8472 5.62474 18.2248 5.90874C17.9688 5.94394 17.6752 6.08155 17.4184 6.03595C17.2056 5.90075 17.3224 5.54794 17.5216 5.44634C18.612 4.69994 19.9848 4.47835 21.2824 4.51995ZM10.3192 5.99355C10.6 6.04475 10.8472 6.14715 11.0896 6.29595C11.0776 6.39195 11.0688 6.48795 11.0632 6.58555C10.8472 6.64475 10.6264 6.67515 10.404 6.69275C9.3504 6.78475 8.288 7.10155 7.2992 7.46795C6.3208 7.84795 5.3168 8.31915 4.484 8.96475C4.2584 9.12715 4.1536 9.35035 3.8376 9.32235C3.7976 9.25035 3.7576 9.17914 3.7168 9.10874C3.788 8.98154 3.8512 8.85515 3.9376 8.73755C4.7016 7.68395 5.8288 6.87995 7.0264 6.38955C8.0424 5.97755 9.2352 5.74555 10.3192 5.99355Z" fill="black"/>
<path d="M19.5057 19.2832C20.3809 19.392 21.2537 19.84 21.6833 20.6392C21.9545 21.14 22.0745 21.7776 21.9465 22.3368C21.8305 23.1648 21.3449 23.9408 20.7865 24.5464C19.8433 25.536 18.5585 26.2048 17.2025 26.3896C16.0641 26.5848 14.8729 26.4912 13.7721 26.1488C13.0721 25.9248 12.4441 25.5464 11.8673 25.0968C11.2025 24.556 10.6049 23.8688 10.3009 23.0584C10.1289 22.6224 10.0849 22.1376 10.1593 21.676C10.2553 21.124 10.6737 20.6664 11.1841 20.4552C11.7233 20.2376 12.3097 20.1944 12.8793 20.3088C13.6009 20.4056 14.2193 20.712 14.8561 21.0424C16.0289 19.8296 17.8105 19.076 19.5057 19.2832Z" fill="black"/>
<path d="M19.1202 19.724C19.825 19.7488 20.5146 19.9872 21.0146 20.4984C20.7738 20.7888 20.4682 21.004 20.1338 21.1744C19.9994 21.2472 19.8434 21.3104 19.7298 21.4136C19.5354 21.6512 19.441 22.0696 19.1978 22.2528C18.9146 22.1632 18.6554 21.9464 18.4034 21.7888C17.249 22.0624 16.0658 22.1792 14.8802 22.1552C13.9962 22.1736 13.117 22.1016 12.245 21.9576C12.1002 21.936 11.9178 21.8784 11.777 21.9312C11.6026 22.0464 11.4618 22.2184 11.3122 22.364C11.1658 22.1368 11.0178 21.9104 10.8754 21.68C10.8026 21.6464 10.7298 21.6136 10.657 21.58C10.8754 21.1008 11.3266 20.8192 11.8386 20.7504C12.773 20.6192 13.7658 20.9608 14.5594 21.4384C14.7154 21.52 14.8482 21.6248 15.0218 21.5088C15.2482 21.336 15.4346 21.1152 15.6626 20.9424C16.6186 20.1752 17.8834 19.6656 19.1202 19.724Z" fill="white"/>
<path d="M21.3073 20.9056C21.5145 21.3664 21.5649 21.82 21.4785 22.3184C21.3209 23.08 20.9137 23.7416 20.3721 24.2912C19.5065 25.1936 18.2585 25.7392 17.0385 25.9408C16.1449 26.0504 15.1961 26.0456 14.3233 25.8056C13.1473 25.496 12.0737 24.8408 11.3153 23.8824C10.8977 23.34 10.5817 22.7512 10.5657 22.0504C10.7729 22.264 10.8753 22.5488 11.0705 22.7672C11.4073 23.0296 11.6889 22.5984 11.9113 22.3944C13.3217 22.5936 14.8209 22.7432 16.2401 22.5832C16.9457 22.5504 17.6393 22.4336 18.3313 22.2984C18.6273 22.4128 18.9977 22.772 19.3465 22.6936C19.8297 22.5136 19.8313 21.7464 20.3273 21.6048C20.6249 21.4616 20.8913 21.28 21.1369 21.0592C21.1937 21.0088 21.2505 20.9576 21.3073 20.9056Z" fill="#8F2E45"/>
<path d="M23.1999 7.54555C24.0535 7.52315 24.9079 7.54075 25.7615 7.52475C26.8791 7.47595 27.9999 7.49515 29.1199 7.48315C29.4295 7.49515 29.8399 7.46875 30.0967 7.66795C30.2855 7.79835 30.2743 8.11515 30.2847 8.31915C30.2759 8.66555 30.2623 9.06955 30.0999 9.38315C29.6943 9.54155 29.1847 9.48315 28.7527 9.53595C28.7871 10.5168 28.8863 11.5008 28.8575 12.4824C28.8007 13.5952 28.5639 14.7224 28.0303 15.708C27.3831 16.7512 26.4375 17.6592 25.3471 18.2288C24.5135 18.6592 23.6071 18.8208 22.6759 18.8512C22.1783 18.8664 21.7095 18.8904 21.2191 18.784C20.4607 18.6208 19.7087 18.428 19.0623 17.9792C18.1711 17.3728 17.5207 16.4776 17.0295 15.5312C16.5023 14.4456 16.2183 13.192 15.9687 12.016C15.9263 11.832 15.7783 11.7376 15.6207 11.66C15.0903 11.424 14.4263 11.6192 14.1167 12.108C14.0527 12.3008 14.0447 12.5192 14.0239 12.72C13.9743 13.3288 13.8439 13.9464 13.7135 14.5432C13.4639 15.6296 12.9943 16.6488 12.3695 17.5696C12.0215 18.0328 11.5895 18.4832 11.0719 18.7544C10.2295 19.2136 9.28792 19.5616 8.31912 19.5768C7.73992 19.5616 7.18712 19.5456 6.62952 19.3768C6.19112 19.2704 5.78872 18.9928 5.41672 18.7416C4.90392 18.3904 4.53192 17.9184 4.19432 17.404C3.77032 16.7392 3.44952 16.0168 3.21512 15.2656C2.98792 14.5096 2.79592 13.7624 2.79992 12.9672C2.43592 13.0208 2.04872 13.1464 1.68072 13.124C1.33192 13.0592 1.25592 12.5232 1.24072 12.2376C1.25112 12.0464 1.22792 11.6968 1.45592 11.6232C3.18392 10.8376 5.01112 10.2584 6.85912 9.82955C8.22152 9.53355 9.63752 9.17035 11.0407 9.29755C11.9351 9.37275 12.8671 9.61115 13.5783 10.1824C13.8343 10.3752 14.0127 10.7288 14.3287 10.7896C14.8951 10.936 15.4847 10.6912 15.9999 10.4728C16.2903 9.67275 16.8015 9.08555 17.5247 8.64715C18.0279 8.33995 18.6183 8.15515 19.1807 7.98475C20.5215 7.66235 21.8319 7.61275 23.1999 7.54555Z" fill="black"/>
<path d="M2.24795 12.4928C2.34475 12.3968 2.51995 12.492 2.44315 12.624C2.34635 12.72 2.17115 12.6248 2.24795 12.4928Z" fill="black"/>
<path d="M26.08 11.68C26.6985 11.68 27.2 11.3039 27.2 10.84C27.2 10.3761 26.6985 10 26.08 10C25.4614 10 24.96 10.3761 24.96 10.84C24.96 11.3039 25.4614 11.68 26.08 11.68Z" fill="white"/>
<path d="M10.5599 12.9771C11.0459 12.9771 11.4399 12.6867 11.4399 12.3285C11.4399 11.9703 11.0459 11.6799 10.5599 11.6799C10.0739 11.6799 9.67993 11.9703 9.67993 12.3285C9.67993 12.6867 10.0739 12.9771 10.5599 12.9771Z" fill="white"/>
</g>
</svg>
