<svg width="32" height="32" viewBox="0 0 32 32" fill="none" xmlns="http://www.w3.org/2000/svg">
<mask id="mask0_68_1367" style="mask-type:luminance" maskUnits="userSpaceOnUse" x="0" y="0" width="32" height="32">
<path d="M32 0H0V32H32V0Z" fill="white"/>
</mask>
<g mask="url(#mask0_68_1367)">
<path d="M32 0H0V32H32V0Z" fill="#ECAD80"/>
<path d="M27.2687 12.7832C27.3391 12.8128 27.4095 12.8432 27.4791 12.8736C27.4695 12.9536 27.4567 13.0328 27.4415 13.112C27.2647 13.42 26.9671 13.6664 26.7215 13.9208C26.2535 14.3208 25.7415 14.6784 25.1887 14.9512C24.0647 15.512 22.7703 15.7416 21.5215 15.6232C19.9655 15.492 18.4471 14.8376 17.1847 13.9352C17.0735 13.8448 16.9551 13.7768 16.9879 13.612C17.0303 13.4136 17.3047 13.3472 17.4767 13.416C19.1735 13.9184 20.8871 13.9536 22.6407 13.852C23.9415 13.728 25.2055 13.5104 26.4423 13.0776C26.7255 12.9808 26.9847 12.8544 27.2687 12.7832ZM12.9239 13.6344C13.1479 13.7432 13.1007 13.988 12.9351 14.1296C12.0687 14.9272 10.9111 15.4328 9.75752 15.6336C9.13512 15.7128 8.54952 15.8176 7.92152 15.7232C6.81592 15.6384 5.73992 15.3152 4.80072 14.7208C4.62872 14.6088 4.42712 14.4888 4.30552 14.3208C4.25592 14.1184 4.36312 14.0104 4.55672 13.9864C4.77352 14.0088 4.99112 14.0944 5.20312 14.1488C5.80792 14.3192 6.42072 14.3912 7.04392 14.452C8.75912 14.5784 10.5383 14.3832 12.1759 13.8496C12.4111 13.7872 12.6799 13.612 12.9239 13.6344Z" fill="black"/>
<path d="M20.1568 2.42727C21.8744 2.16247 23.5808 2.67847 25.0048 3.63447C25.9696 4.28967 26.8368 5.20887 27.3224 6.27687C27.4104 6.51367 27.2984 6.57527 27.1216 6.69847C26.8056 6.51767 26.572 6.25207 26.284 6.03527C25.2448 5.25287 24.0416 4.72487 22.7816 4.41527C21.5872 4.13447 20.3368 4.01127 19.1176 4.19127C18.7352 4.22407 18.3752 4.34487 18 4.40487C17.8072 4.42087 17.592 4.30807 17.6632 4.08167C17.8152 3.74967 18.0016 3.40167 18.2712 3.14967C18.7544 2.70007 19.5224 2.52167 20.1568 2.42727ZM8.31998 8.54647C9.39038 8.48087 10.4264 8.49767 11.4424 8.88487C11.9104 9.07447 12.364 9.35767 12.5568 9.84887C12.6672 10.1937 12.6296 10.5585 12.4184 10.8577C12.0264 10.7969 11.6664 10.6497 11.284 10.5521C9.43358 10.0457 7.50878 9.91127 5.60078 10.0753C5.21038 10.1017 4.81198 10.2377 4.42318 10.2177C4.28078 10.1793 4.32958 10.0417 4.34558 9.93447C4.41598 9.73367 4.63198 9.62567 4.80638 9.52727C5.90638 8.94727 7.09038 8.67527 8.31998 8.54647Z" fill="black"/>
<path d="M21.6799 20.1208C21.7967 20.1216 21.9631 20.0944 22.0503 20.1896C22.1935 20.3136 22.1087 20.5496 21.9223 20.5672C21.4975 20.6312 21.0639 20.6168 20.6375 20.672C20.2487 20.7216 19.8599 20.7728 19.4719 20.8248C19.7159 21.3448 19.8751 21.8984 19.9575 22.4664C20.0455 23.2232 19.9967 23.9728 19.6023 24.6424C19.2759 25.1984 18.7167 25.5776 18.0847 25.6968C17.3407 25.8176 16.5991 25.6728 15.9199 25.3584C14.8687 24.8656 14.0087 24.0944 13.3135 23.1728C12.7815 23.564 12.2735 23.9808 11.8335 24.4744C11.7079 24.6008 11.5535 24.7872 11.3751 24.624C11.2263 24.4848 11.3527 24.3016 11.4599 24.1808C12.2335 23.3184 13.2143 22.6184 14.2303 22.068C16.5079 20.848 19.1135 20.268 21.6799 20.1208Z" fill="black"/>
<path d="M19.0287 20.9111C19.1207 21.2263 19.2527 21.5271 19.3455 21.8423C19.5159 22.3983 19.5495 22.9815 19.4887 23.5575C19.3999 24.1327 19.1183 24.7023 18.6007 25.0031C18.0063 25.3623 17.2711 25.3231 16.6287 25.1231C15.4255 24.7351 14.4727 23.9047 13.7119 22.9167C14.4527 22.4519 15.2375 22.0631 16.0551 21.7543C16.1927 21.9431 16.3167 22.1615 16.4887 22.3199C16.6023 22.4383 16.8447 22.3287 16.8159 22.1591C16.7847 21.9687 16.5935 21.8103 16.5111 21.6343C16.5015 21.5967 16.5215 21.5735 16.5711 21.5639C17.3695 21.2831 18.1983 21.0743 19.0287 20.9111Z" fill="#EA869E"/>
</g>
</svg>
