<svg width="32" height="32" viewBox="0 0 32 32" fill="none" xmlns="http://www.w3.org/2000/svg">
<mask id="mask0_68_1381" style="mask-type:luminance" maskUnits="userSpaceOnUse" x="0" y="0" width="32" height="32">
<path d="M32 0H0V32H32V0Z" fill="white"/>
</mask>
<g mask="url(#mask0_68_1381)">
<path d="M32 0H0V32H32V0Z" fill="#763900"/>
<path d="M22.401 8.16797C23.7138 8.20877 24.9874 8.75677 25.9154 9.68637C26.3762 10.1352 26.7114 10.6712 27.0034 11.2408C27.633 10.8336 28.2674 10.4344 28.9042 10.0384C29.0042 10.1256 29.0978 10.2184 29.189 10.3152C28.9354 10.5968 28.6234 10.7464 28.3122 10.9496C27.9306 11.192 27.5482 11.432 27.1682 11.676C27.4218 12.476 27.5306 13.3072 27.3922 14.1408C27.2282 15.3344 26.625 16.4496 25.7322 17.2552C24.8058 18.1 23.5754 18.5928 22.3202 18.6024C21.2818 18.6296 20.2346 18.324 19.3682 17.752C18.373 17.1072 17.6234 16.1112 17.2562 14.9856C16.8906 13.8256 16.9314 12.5264 17.3994 11.4008C17.8322 10.3304 18.6442 9.41517 19.649 8.84797C20.4738 8.36477 21.4498 8.13997 22.401 8.16797Z" fill="black"/>
<path d="M21.6216 8.66075C22.7936 8.51915 23.9632 8.79035 24.9336 9.46395C25.9304 10.1423 26.6432 11.2135 26.8904 12.3935C27.1 13.3823 26.9896 14.4351 26.5648 15.3551C26.0752 16.4463 25.1512 17.3471 24.0384 17.7895C23.2208 18.1279 22.3128 18.2415 21.44 18.0831C20.1272 17.8711 18.9216 17.0735 18.212 15.9487C17.764 15.2471 17.5128 14.4335 17.4624 13.6039C17.4136 12.4471 17.8008 11.2719 18.5352 10.3751C19.2928 9.43355 20.4248 8.81035 21.6216 8.66075Z" fill="white"/>
<path d="M10.8042 10.556C11.6642 11.0384 12.3434 11.8184 12.7138 12.732C12.993 13.4128 13.077 14.1544 13.0026 14.884C12.8594 16.2544 12.0298 17.5128 10.8346 18.1944C9.51539 18.9656 7.82179 18.976 6.49059 18.2272C5.33699 17.588 4.51059 16.4232 4.29859 15.12C4.15379 14.408 4.24739 13.7064 4.44979 13.0168C3.98419 12.7264 3.47939 12.4872 3.03059 12.1728C2.87459 12.0848 2.91539 11.8432 3.08499 11.8016C3.21699 11.7632 3.33939 11.8488 3.45299 11.904C3.83939 12.1304 4.22419 12.3568 4.61139 12.5816C5.13779 11.4512 6.10339 10.5656 7.29859 10.192C8.45219 9.81918 9.75139 9.95598 10.8042 10.556Z" fill="black"/>
<path d="M7.94177 10.5031C9.14417 10.2807 10.417 10.6591 11.3106 11.4911C12.1154 12.2303 12.5826 13.3087 12.585 14.4007C12.5714 15.0447 12.4074 15.6943 12.0994 16.2615C11.5442 17.2871 10.5282 18.0383 9.38097 18.2535C8.73537 18.3911 8.08257 18.3407 7.45457 18.1447C5.92657 17.6743 4.78977 16.2423 4.70417 14.6415C4.62577 13.6183 4.98257 12.5839 5.65217 11.8087C6.23697 11.1263 7.05777 10.6631 7.94177 10.5031Z" fill="white"/>
<path d="M19.8616 11.5352C20.4512 11.4632 21.0784 11.6776 21.4816 12.1184C21.7872 12.452 21.984 12.9016 21.9944 13.356C22.0168 13.9368 21.752 14.532 21.296 14.8952C20.7392 15.3616 19.9168 15.4488 19.2672 15.132C18.576 14.804 18.1288 14.0432 18.1968 13.2776C18.2528 12.3864 18.976 11.6368 19.8616 11.5352ZM6.36316 12.7072C7.27596 12.3976 8.31036 12.9472 8.56636 13.8744C8.86796 14.8096 8.24476 15.8632 7.28396 16.06C6.43356 16.272 5.50876 15.7768 5.23116 14.9448C4.91756 14.0544 5.45116 12.9776 6.36316 12.7072Z" fill="black"/>
<path d="M13.8426 5.90797C13.8954 6.27917 13.7218 6.65597 13.5058 6.94797C13.2178 7.30477 12.881 7.61677 12.4778 7.83837C11.865 8.18637 11.201 8.45517 10.5426 8.70317C8.63935 9.40637 6.65775 9.91117 4.66095 10.2616C4.39295 10.3048 4.10335 10.3816 3.83215 10.3504C3.67855 10.2768 3.67215 10.1248 3.74335 9.98877C3.93055 9.84477 4.18255 9.77117 4.39855 9.67757C7.27375 8.49997 10.149 7.32157 13.0226 6.14157C13.2914 6.04157 13.5498 5.87117 13.8426 5.90797ZM15.9978 5.91997C19.9434 6.52877 23.8922 7.13197 27.8386 7.73997C28.045 7.77357 28.265 7.78637 28.4634 7.85277C28.6586 7.94397 28.5994 8.25597 28.3866 8.27357C27.6194 8.34957 26.8522 8.41917 26.0802 8.42957C24.849 8.43757 23.629 8.45517 22.4018 8.33517C20.729 8.20397 19.0226 7.96797 17.4218 7.45037C16.8642 7.25757 16.2314 7.01357 15.8002 6.59917C15.657 6.44717 15.473 6.25677 15.5466 6.02877C15.6442 5.85837 15.8346 5.90157 15.9978 5.91997Z" fill="black"/>
<path d="M17.2977 19.1184C18.5353 19.2672 19.7993 19.56 20.8529 20.2544C21.4177 20.6248 21.9329 21.1624 22.0825 21.84C22.2713 22.528 21.7929 23.2984 21.1473 23.5496C20.5697 23.792 20.0257 23.6936 19.4393 23.5632C18.9625 23.4872 18.4833 23.4352 18.0001 23.416C16.1953 23.34 14.3889 23.484 12.6249 23.876C12.1649 23.9568 11.7353 24.14 11.2809 24.1728C10.7625 24.184 10.2345 23.928 9.9369 23.5C9.6905 23.1648 9.58331 22.7296 9.59371 22.3184C9.64251 21.6976 10.0249 21.1272 10.4873 20.7288C11.2697 20.04 12.3209 19.6352 13.3201 19.384C14.6225 19.0784 15.9657 19.0008 17.2977 19.1184Z" fill="black"/>
<path d="M18.1576 19.728C17.3368 20.3272 16.2944 20.648 15.2936 20.7624C14.1632 20.8568 13.0392 20.776 11.9744 20.3616C12.6832 19.9824 13.5296 19.8056 14.316 19.6632C15.6008 19.4904 16.8816 19.4712 18.1576 19.728Z" fill="white"/>
<path d="M18.7816 19.864C19.6672 20.1224 20.5864 20.4816 21.216 21.1856C21.5504 21.5664 21.7704 22.084 21.536 22.5768C21.2952 23.0696 20.7632 23.2616 20.24 23.2152C18.4456 22.8576 16.5384 22.8648 14.7232 23.0512C13.7432 23.1792 12.792 23.3224 11.84 23.5976C11.3864 23.708 10.9352 23.772 10.5464 23.4536C10.0192 23.0336 9.95357 22.2856 10.2672 21.7144C10.5408 21.2472 10.9784 20.8936 11.4384 20.6216C11.7648 20.8256 12.1144 20.9168 12.4816 21.0192C14.232 21.4736 16.2304 21.336 17.8424 20.4824C18.1832 20.3136 18.4664 20.0712 18.7816 19.864Z" fill="#8F2E45"/>
</g>
</svg>
