<svg width="32" height="32" viewBox="0 0 32 32" fill="none" xmlns="http://www.w3.org/2000/svg">
<mask id="mask0_68_1399" style="mask-type:luminance" maskUnits="userSpaceOnUse" x="0" y="0" width="32" height="32">
<path d="M32 0H0V32H32V0Z" fill="white"/>
</mask>
<g mask="url(#mask0_68_1399)">
<path d="M32 0H0V32H32V0Z" fill="#ECAD80"/>
<path d="M21.4807 8.22081C22.9895 7.99121 24.5767 8.47041 25.7087 9.49281C26.6663 10.344 27.2911 11.5648 27.4199 12.84C27.5567 14.0648 27.2271 15.348 26.5199 16.3584C25.9031 17.2512 25.0055 17.9368 23.9863 18.3056C23.0183 18.6424 21.9551 18.704 20.9607 18.4488C19.5959 18.116 18.3927 17.2024 17.6999 15.98C16.6599 14.2088 16.8103 11.8576 18.0663 10.2328C18.8855 9.15201 20.1327 8.40081 21.4807 8.22081Z" fill="black"/>
<path d="M21.6175 8.66079C22.7711 8.52159 23.9215 8.77919 24.8847 9.43039C25.7951 10.0344 26.4855 10.9688 26.7919 12.0176C27.1271 13.1048 27.0415 14.3224 26.5647 15.3552C26.0759 16.4456 25.1519 17.3464 24.0399 17.7888C23.2223 18.128 22.3143 18.2408 21.4407 18.0832C20.3175 17.9024 19.2679 17.2904 18.5463 16.412C17.8767 15.5992 17.5015 14.5696 17.4591 13.52C17.4351 12.388 17.8167 11.2528 18.5351 10.3752C19.2919 9.43439 20.4215 8.81199 21.6175 8.66079Z" fill="white"/>
<path d="M8.17598 10.0081C9.27438 9.89285 10.4048 10.2033 11.2848 10.8713C12.172 11.5369 12.7872 12.5449 12.9712 13.6385C13.0696 14.3057 13.0488 15.0201 12.8424 15.6657C12.4864 16.8601 11.6 17.8737 10.464 18.3849C9.39358 18.8801 8.13198 18.9113 7.03518 18.4825C6.00398 18.0857 5.14398 17.2857 4.66798 16.2897C4.29198 15.4905 4.12798 14.5537 4.29438 13.6809C4.44158 12.7193 4.92638 11.8201 5.63998 11.1601C6.33118 10.5137 7.23518 10.1065 8.17598 10.0081Z" fill="black"/>
<path d="M7.9376 10.5041C8.72 10.3641 9.528 10.4609 10.252 10.7913C11.3064 11.2585 12.1216 12.2081 12.4296 13.3193C12.8416 14.6793 12.3976 16.2385 11.3736 17.2137C10.3608 18.2089 8.8072 18.5913 7.4536 18.1441C6.1944 17.7537 5.1832 16.7097 4.8368 15.4377C4.4536 14.0849 4.8496 12.5937 5.8424 11.6025C6.4112 11.0321 7.1448 10.6497 7.9376 10.5041Z" fill="white"/>
<path d="M22.3816 10.7792C22.0721 11.0992 21.8464 11.4608 21.8496 11.9208C21.796 12.6112 22.2088 13.2912 22.8496 13.5544C23.328 13.7504 23.8305 13.66 24.2608 13.3936C24.248 14.1488 24.0328 14.8736 23.5184 15.44C22.7664 16.2992 21.52 16.6456 20.436 16.2744C19.288 15.9112 18.4632 14.804 18.4376 13.6008C18.3992 12.484 19.0352 11.4088 20.0408 10.9176C20.7768 10.5392 21.6017 10.54 22.3816 10.7792ZM9.03765 11.6704C9.67765 11.556 10.292 11.7136 10.8568 12.0128C10.6152 12.2592 10.4201 12.5176 10.416 12.8784C10.3633 13.4568 10.7816 14.0192 11.3568 14.1168C11.6296 14.1712 11.8528 14.08 12.1096 14.004C12.1992 14.9856 11.7512 15.9792 10.928 16.528C9.99685 17.16 8.65685 17.0872 7.78805 16.3752C7.01285 15.7688 6.63765 14.716 6.84725 13.756C7.06485 12.6912 7.95445 11.8184 9.03765 11.6704Z" fill="black"/>
<path d="M19.8752 13.4008C20.0584 13.3208 20.2592 13.2944 20.432 13.4136C20.7152 13.5968 20.708 14.0184 20.4936 14.2528C20.28 14.4952 19.8744 14.5096 19.668 14.248C19.4408 13.9744 19.5632 13.552 19.8752 13.4008ZM8.03515 13.884C8.41595 13.7536 8.77995 14.1712 8.60075 14.5248C8.47195 14.8144 8.04635 14.8744 7.84955 14.6288C7.64075 14.3912 7.73115 13.988 8.03515 13.884ZM20.6 14.6152C20.7984 14.5536 21.0232 14.568 21.2216 14.6248C21.7136 14.8184 21.8656 15.5232 21.508 15.9096C21.1904 16.2896 20.5656 16.2968 20.252 15.908C19.8968 15.4784 20.0568 14.7944 20.6 14.6152ZM8.60075 15.2592C8.87435 15.1704 9.17195 15.2088 9.36955 15.432C9.64875 15.7024 9.63835 16.204 9.32395 16.444C8.99995 16.7192 8.46155 16.5816 8.26555 16.2152C8.05915 15.872 8.21675 15.3896 8.60075 15.2592Z" fill="white"/>
<path d="M17.8393 5.03674C18.6321 5.04634 19.4289 5.29514 20.1457 5.62154C20.4145 5.77194 20.7097 5.94234 20.7305 6.28474C20.3193 6.21594 19.9193 6.11994 19.5001 6.10234C18.5721 6.04794 17.6497 6.21114 16.8401 6.68074C16.6369 6.79354 16.4441 6.94154 16.2289 7.02874C16.0849 7.05034 15.9153 6.86954 15.9137 6.73034C15.8993 6.26554 16.0697 5.77674 16.4361 5.47434C16.8385 5.13594 17.3281 5.05034 17.8393 5.03674ZM10.8025 6.44874C11.2673 6.46074 11.6769 6.87274 11.8033 7.29994C11.8673 7.51034 11.7665 7.75754 11.5209 7.74874C10.8153 7.76554 10.0641 7.75114 9.37608 7.92954C8.77448 8.09034 8.19688 8.46634 7.66728 8.78874C7.56968 8.85354 7.46168 8.86554 7.34888 8.88634C7.37528 8.73194 7.40008 8.59354 7.50408 8.46954C7.76648 8.12314 8.04648 7.78314 8.36328 7.48554C8.83368 7.07194 9.40408 6.76874 9.98888 6.55274C10.2473 6.46394 10.5297 6.42634 10.8025 6.44874Z" fill="black"/>
<path d="M24.0791 19.7352C24.2727 19.8152 24.2327 20.0072 24.1895 20.1712C23.6471 21.2392 22.9031 22.1856 21.9215 22.8832C20.5463 23.8824 18.8111 24.3552 17.1199 24.2896C14.9751 24.2128 12.8743 23.3264 11.2447 21.9448C11.2127 21.7512 11.2055 21.648 11.3607 21.5112C15.5071 20.9408 19.9031 20.3088 24.0791 19.7352Z" fill="black"/>
<path d="M23.5888 20.2809C22.9352 21.4849 21.9104 22.4777 20.6792 23.0801C19.6824 23.5697 18.5512 23.8353 17.44 23.8153C15.4632 23.8297 13.5192 23.0945 11.9536 21.9057C15.788 21.3785 19.772 20.8017 23.5888 20.2809Z" fill="#8F2E45"/>
</g>
</svg>
