<svg width="32" height="32" viewBox="0 0 32 32" fill="none" xmlns="http://www.w3.org/2000/svg">
<mask id="mask0_68_1417" style="mask-type:luminance" maskUnits="userSpaceOnUse" x="0" y="0" width="32" height="32">
<path d="M32 0H0V32H32V0Z" fill="white"/>
</mask>
<g mask="url(#mask0_68_1417)">
<path d="M32 0H0V32H32V0Z" fill="#F2D3B1"/>
<path d="M18.1625 11.1296C18.6017 11.0368 19.0953 11.3248 19.5161 11.448C21.2881 12.0144 23.1881 12.2048 25.0409 12.0672C25.5393 12.0192 26.0649 11.8744 26.5641 11.9064C27.0601 11.9592 27.3953 12.392 27.4401 12.8712C27.5009 13.7352 27.3761 14.6312 27.0337 15.4304C26.5585 16.5496 25.6825 17.488 24.5985 18.0384C22.8905 18.9248 20.7305 18.76 19.1785 17.6216C18.0033 16.7824 17.2025 15.4344 17.0449 13.9976C16.9769 13.3024 17.0145 12.6056 17.2121 11.9336C17.3233 11.5144 17.7545 11.2136 18.1625 11.1296ZM11.9401 11.58C12.2305 11.7584 12.4057 12.108 12.5625 12.4C13.0057 13.2632 13.1225 14.2544 12.9585 15.2056C12.7945 16.052 12.3857 16.8464 11.7801 17.4616C11.1201 18.1392 10.2353 18.5936 9.29928 18.732C8.14968 18.9096 6.93608 18.6136 6.00648 17.912C5.10488 17.2472 4.48008 16.2264 4.29928 15.1208C4.25368 14.8264 4.17768 14.5128 4.31128 14.2304C4.44328 13.8952 4.76488 13.6632 5.12008 13.6224C5.51528 13.5752 5.90968 13.528 6.30248 13.4624C7.77288 13.1984 9.12328 12.5624 10.3313 11.6928C10.8017 11.284 11.4145 11.256 11.9401 11.58Z" fill="black"/>
<path d="M18.7529 11.6519C19.7297 12.0543 20.7937 12.2895 21.8385 12.4287C23.0897 12.5903 24.3497 12.6359 25.6017 12.4535C25.9113 12.4087 26.2505 12.3079 26.5609 12.3311C26.7553 12.3375 26.9089 12.5447 26.9465 12.7207C27.0785 13.6567 26.9297 14.6215 26.5105 15.4703C26.0017 16.5279 25.0801 17.3911 23.9825 17.8119C23.1297 18.1551 22.1817 18.2455 21.2817 18.0543C19.9129 17.7831 18.6889 16.8799 18.0345 15.6463C17.4825 14.6095 17.2849 13.3263 17.6289 12.1927C17.7625 11.6975 18.2697 11.3983 18.7529 11.6519ZM11.9017 12.1783C12.2841 12.7423 12.5057 13.3991 12.5729 14.0759C12.6721 15.3871 12.0825 16.7135 11.0329 17.5087C10.3297 18.0551 9.44648 18.3367 8.55928 18.3327C7.63048 18.3023 6.71928 17.9559 6.02488 17.3343C5.25048 16.6543 4.76248 15.6671 4.70168 14.6375C4.66408 14.3823 4.87208 14.1207 5.12248 14.0815C5.38168 14.0279 5.65288 14.0191 5.91608 13.9871C7.39608 13.8063 8.84328 13.2191 10.0913 12.4119C10.3385 12.2583 10.5601 12.0671 10.8089 11.9175C11.1609 11.7335 11.6849 11.8271 11.9017 12.1783Z" fill="white"/>
<path d="M20.3633 13.9935C21.3473 13.9055 22.2745 14.6759 22.2897 15.6799C22.3569 16.5639 21.6849 17.3775 20.8137 17.5063C19.8609 17.6775 18.8993 16.9615 18.7809 16.0023C18.6273 15.0191 19.3817 14.0847 20.3633 13.9935ZM9.71929 14.6799C10.1961 14.5751 10.7297 14.7487 11.0841 15.0767C11.6065 15.5559 11.7377 16.3663 11.3817 16.9815C11.0497 17.6047 10.2921 17.9095 9.6153 17.7311C8.9481 17.5567 8.45209 16.9351 8.46169 16.2399C8.43769 15.4847 8.98729 14.8319 9.71929 14.6799Z" fill="black"/>
<path d="M26.2393 6.04722C26.3609 6.01522 26.5001 6.09522 26.6185 6.12482C26.6097 6.22082 26.6049 6.32082 26.5809 6.41362C26.4545 6.53282 26.2953 6.62242 26.1497 6.71602C24.3281 7.88402 22.4553 8.98802 20.5241 9.96642C19.6017 10.4248 18.6569 10.8704 17.6801 11.2016C17.1313 11.3768 16.5825 11.544 15.9993 11.4768C15.7345 11.452 15.5065 11.2352 15.5009 10.9624C15.4977 10.6248 15.7409 10.2744 15.9073 9.99042C16.0097 9.77602 16.2673 9.74722 16.4665 9.66082C19.4457 8.56082 22.4217 7.44882 25.4001 6.34482C25.6785 6.24642 25.9529 6.12002 26.2393 6.04722ZM4.79927 8.85122C7.18967 9.32642 9.60967 9.81362 12.0009 10.2928C12.1825 10.3184 12.3689 10.2984 12.5489 10.3288C12.7449 10.5128 12.8401 10.8256 12.9121 11.0784C13.0057 11.4056 12.9001 11.78 12.5993 11.9592C12.2793 12.1688 11.8065 12.132 11.4393 12.1104C10.7401 12.0304 10.0465 11.8064 9.38487 11.5712C7.81607 10.9984 6.28967 10.2168 4.82727 9.41362C4.69367 9.33682 4.53287 9.25842 4.44407 9.12962C4.41367 8.89922 4.59207 8.79682 4.79927 8.85122Z" fill="black"/>
<path d="M13.9401 19.6288C14.2681 19.5832 14.6001 19.6008 14.9065 19.7352C15.5137 19.9872 15.9225 20.5736 16.0649 21.2024C16.3185 22.1712 15.9593 23.2752 15.1313 23.8592C14.8897 24.0536 14.5937 24.1368 14.2929 24.0304C14.0089 23.892 13.8737 23.6104 13.8001 23.3176C13.6833 22.8928 13.8969 22.476 13.8113 22.0248C13.7313 21.6904 13.4321 21.4312 13.2849 21.112C13.1857 20.8984 13.0913 20.6376 13.1193 20.3992C13.1793 19.9976 13.5505 19.6888 13.9401 19.6288Z" fill="black"/>
</g>
</svg>
