<svg width="32" height="32" viewBox="0 0 32 32" fill="none" xmlns="http://www.w3.org/2000/svg">
<mask id="mask0_68_1431" style="mask-type:luminance" maskUnits="userSpaceOnUse" x="0" y="0" width="32" height="32">
<path d="M32 0H0V32H32V0Z" fill="white"/>
</mask>
<g mask="url(#mask0_68_1431)">
<path d="M32 0H0V32H32V0Z" fill="#9E5622"/>
<path d="M27.2687 12.7832C27.3391 12.8128 27.4095 12.8432 27.4791 12.8736C27.4695 12.9536 27.4567 13.0328 27.4415 13.112C27.2647 13.42 26.9671 13.6664 26.7215 13.9208C26.2535 14.3208 25.7415 14.6784 25.1887 14.9512C24.0647 15.512 22.7703 15.7416 21.5215 15.6232C19.9655 15.492 18.4471 14.8376 17.1847 13.9352C17.0735 13.8448 16.9551 13.7768 16.9879 13.612C17.0303 13.4136 17.3047 13.3472 17.4767 13.416C19.1735 13.9184 20.8871 13.9536 22.6407 13.852C23.9415 13.728 25.2055 13.5104 26.4423 13.0776C26.7255 12.9808 26.9847 12.8544 27.2687 12.7832ZM12.9239 13.6344C13.1479 13.7432 13.1007 13.988 12.9351 14.1296C12.0687 14.9272 10.9111 15.4328 9.75752 15.6336C9.13512 15.7128 8.54952 15.8176 7.92152 15.7232C6.81592 15.6384 5.73992 15.3152 4.80072 14.7208C4.62872 14.6088 4.42712 14.4888 4.30552 14.3208C4.25592 14.1184 4.36312 14.0104 4.55672 13.9864C4.77352 14.0088 4.99112 14.0944 5.20312 14.1488C5.80792 14.3192 6.42072 14.3912 7.04392 14.452C8.75912 14.5784 10.5383 14.3832 12.1759 13.8496C12.4111 13.7872 12.6799 13.612 12.9239 13.6344Z" fill="black"/>
<path d="M13.8424 5.90797C13.8952 6.27917 13.7216 6.65597 13.5056 6.94797C13.2176 7.30477 12.8808 7.61677 12.4776 7.83837C11.8648 8.18637 11.2008 8.45517 10.5424 8.70317C8.63923 9.40637 6.65763 9.91117 4.66083 10.2616C4.39283 10.3048 4.10323 10.3816 3.83203 10.3504C3.67843 10.2768 3.67203 10.1248 3.74323 9.98877C3.93043 9.84477 4.18243 9.77117 4.39843 9.67757C7.27363 8.49997 10.1488 7.32157 13.0224 6.14157C13.2912 6.04157 13.5496 5.87117 13.8424 5.90797ZM15.9976 5.91997C19.9432 6.52877 23.892 7.13197 27.8384 7.73997C28.0448 7.77357 28.2648 7.78637 28.4632 7.85277C28.6584 7.94397 28.5992 8.25597 28.3864 8.27357C27.6192 8.34957 26.852 8.41917 26.08 8.42957C24.8488 8.43757 23.6288 8.45517 22.4016 8.33517C20.7288 8.20397 19.0224 7.96797 17.4216 7.45037C16.864 7.25757 16.2312 7.01357 15.8 6.59917C15.6568 6.44717 15.4728 6.25677 15.5464 6.02877C15.644 5.85837 15.8344 5.90157 15.9976 5.91997Z" fill="black"/>
<path d="M17.9975 19.7368C18.2983 19.6296 18.4447 20.0576 18.1743 20.1736C17.7223 20.404 17.3135 20.7024 17.1431 21.2024C16.9559 21.7144 17.1751 22.252 17.5215 22.6392C17.7543 22.9088 18.0487 23.0728 18.3487 23.2544C18.5055 23.3416 18.4535 23.476 18.4431 23.6224C18.3743 23.6504 18.3063 23.6792 18.2375 23.7088C17.7343 23.5056 17.2895 23.1472 16.9711 22.7088C16.7855 22.4568 16.7031 22.176 16.5967 21.8872C14.5903 22.0496 12.5687 22.1128 10.5615 22.264C10.4135 22.2392 10.3663 22.104 10.2815 21.9984C10.3703 21.9024 10.4167 21.7856 10.5631 21.7768C11.9479 21.704 13.3319 21.6144 14.7207 21.5384C15.3463 21.4776 15.9759 21.4984 16.5967 21.4136C16.7215 20.6272 17.2831 20.0408 17.9975 19.7368Z" fill="black"/>
</g>
</svg>
