<svg width="32" height="32" viewBox="0 0 32 32" fill="none" xmlns="http://www.w3.org/2000/svg">
<mask id="mask0_68_1444" style="mask-type:luminance" maskUnits="userSpaceOnUse" x="0" y="0" width="32" height="32">
<path d="M32 0H0V32H32V0Z" fill="white"/>
</mask>
<g mask="url(#mask0_68_1444)">
<path d="M32 0H0V32H32V0Z" fill="#9E5622"/>
<path d="M24.6696 8.76884C25.6344 9.27764 26.4232 10.0872 26.9048 11.0656C27.3512 10.7896 27.8056 10.528 28.2512 10.2504C28.376 10.176 28.5024 10.0952 28.6424 10.0536C28.7968 10.0984 28.864 10.1584 28.86 10.3288C28.8224 10.4328 28.72 10.4888 28.6336 10.5496C28.1168 10.8656 27.588 11.1632 27.0808 11.4944C27.5664 12.6272 27.5584 13.9888 27.1456 15.1432C26.7256 16.3296 25.856 17.3488 24.7536 17.9552C23.708 18.544 22.4424 18.7392 21.2664 18.516C19.8368 18.2568 18.5416 17.3664 17.7864 16.1256C17.2856 15.324 17.012 14.3864 17.0152 13.44C16.984 12.1384 17.4832 10.8384 18.3608 9.87924C19.1184 9.04564 20.1632 8.44324 21.2776 8.25604C22.42 8.03284 23.6424 8.22564 24.6696 8.76884Z" fill="black"/>
<path d="M21.6161 8.66162C22.7889 8.51842 23.9609 8.78883 24.9329 9.46323C25.8377 10.08 26.5177 11.0248 26.8097 12.0808C27.1241 13.1504 27.0321 14.3424 26.5649 15.3552C26.0681 16.464 25.1209 17.376 23.9849 17.8104C23.1857 18.1328 22.2889 18.2384 21.4401 18.0832C20.1281 17.872 18.9217 17.0736 18.2121 15.9496C17.7641 15.2472 17.5121 14.432 17.4625 13.6016C17.4145 12.4456 17.8017 11.2704 18.5353 10.3744C19.2913 9.43522 20.4217 8.81282 21.6161 8.66162Z" fill="white"/>
<path d="M10.8553 10.5865C11.7809 11.1217 12.4913 12.0065 12.8185 13.0233C13.0329 13.6649 13.0721 14.3721 12.9841 15.0401C12.8209 16.1561 12.2121 17.1881 11.3161 17.8737C10.4057 18.5745 9.2209 18.9001 8.0809 18.7449C6.8177 18.5993 5.6521 17.8649 4.9585 16.8017C4.5153 16.1353 4.2809 15.3577 4.2305 14.5617C4.2049 13.9961 4.3241 13.4721 4.4641 12.9305C4.1169 12.7121 3.7721 12.4833 3.4393 12.2425C3.3033 12.1441 3.2929 12.0713 3.3169 11.9089C3.4209 11.8081 3.5361 11.7817 3.6649 11.8569C4.0001 12.0625 4.3169 12.2993 4.6449 12.5161C5.1801 11.3945 6.1681 10.5273 7.3625 10.1729C8.5185 9.81768 9.8137 9.97287 10.8553 10.5865Z" fill="black"/>
<path d="M7.93597 10.5041C9.43037 10.2225 11.0064 10.8809 11.8672 12.1305C12.4672 12.9921 12.7352 14.1273 12.4976 15.1577C12.3408 15.9577 11.9272 16.6977 11.332 17.2537C10.6888 17.8665 9.84237 18.2353 8.95997 18.3153C7.34957 18.4633 5.74877 17.5297 5.07037 16.0641C4.45757 14.7865 4.60317 13.2233 5.43837 12.0793C6.02797 11.2545 6.93837 10.6849 7.93597 10.5041Z" fill="white"/>
<path d="M19.7976 11.6393C20.7584 11.4113 21.7872 11.9769 22.1456 12.8897C22.3232 13.3713 22.332 13.9089 22.1392 14.3873C21.8856 15.0529 21.2664 15.5545 20.5624 15.6617C19.9528 15.7681 19.3024 15.5705 18.848 15.1521C18.244 14.6041 18.0232 13.7097 18.3072 12.9441C18.5408 12.2809 19.112 11.7905 19.7976 11.6393ZM9.53765 12.5089C10.2968 12.3505 11.1064 12.7161 11.4928 13.3881C11.7696 13.8361 11.7864 14.3697 11.6728 14.8713C11.4832 15.4505 10.992 15.9297 10.4032 16.0929C9.80245 16.2849 9.10245 16.0977 8.64485 15.6737C8.05685 15.1289 7.88565 14.2337 8.24085 13.5137C8.48645 12.9929 8.97525 12.6241 9.53765 12.5089Z" fill="black"/>
<path d="M26.2391 6.04722C26.3607 6.01522 26.4999 6.09522 26.6183 6.12482C26.6095 6.22082 26.6047 6.32082 26.5807 6.41362C26.4543 6.53282 26.2951 6.62242 26.1495 6.71602C24.3279 7.88402 22.4551 8.98802 20.5239 9.96642C19.6015 10.4248 18.6567 10.8704 17.6799 11.2016C17.1311 11.3768 16.5823 11.544 15.9991 11.4768C15.7343 11.452 15.5063 11.2352 15.5007 10.9624C15.4975 10.6248 15.7407 10.2744 15.9071 9.99042C16.0095 9.77602 16.2671 9.74722 16.4663 9.66082C19.4455 8.56082 22.4215 7.44882 25.3999 6.34482C25.6783 6.24642 25.9527 6.12002 26.2391 6.04722ZM4.79914 8.85122C7.18954 9.32642 9.60955 9.81362 12.0007 10.2928C12.1823 10.3184 12.3687 10.2984 12.5487 10.3288C12.7447 10.5128 12.8399 10.8256 12.9119 11.0784C13.0055 11.4056 12.8999 11.78 12.5991 11.9592C12.2791 12.1688 11.8063 12.132 11.4391 12.1104C10.7399 12.0304 10.0463 11.8064 9.38474 11.5712C7.81594 10.9984 6.28954 10.2168 4.82714 9.41362C4.69354 9.33682 4.53274 9.25842 4.44394 9.12962C4.41354 8.89922 4.59194 8.79682 4.79914 8.85122Z" fill="black"/>
<path d="M19.3744 19.6201C19.4984 19.5897 19.6408 19.5401 19.7688 19.5609C19.9288 19.6233 19.9312 19.8017 19.852 19.9321C19.5224 20.1417 19.052 20.1569 18.7112 20.3233C18.9848 21.4001 19.012 22.5225 18.712 23.5977C18.4504 24.5729 17.8944 25.5193 17.0544 26.1017C16.4904 26.5001 15.8064 26.6945 15.1176 26.6249C14.196 26.5369 13.3816 25.9697 12.8352 25.2425C12.0752 24.2345 11.7672 23.0089 11.7568 21.7601C11.784 21.3105 11.8352 20.8633 11.9256 20.4217C11.7336 20.3593 11.4784 20.3313 11.3256 20.1945C11.2808 20.0961 11.3096 19.9665 11.3056 19.8601C11.6672 19.8585 11.9696 19.9929 12.3184 20.0649C14.6824 20.5409 17.0776 20.3081 19.3744 19.6201Z" fill="black"/>
<path d="M18.2352 20.4088C18.6536 21.8256 18.4968 23.4832 17.7 24.7424C17.3696 25.2608 16.9256 25.6992 16.3616 25.956C15.7224 26.2544 14.9568 26.2304 14.3296 25.9112C13.6848 25.5904 13.164 24.9984 12.8336 24.3664C12.2272 23.1928 12.0784 21.8056 12.392 20.524C13.2288 20.7232 14.0776 20.768 14.9336 20.7856C14.8536 21.3248 14.8568 21.8568 14.8392 22.4C14.84 22.5528 14.8264 22.7272 14.8784 22.8736C14.9664 23.0104 15.2512 22.9696 15.2592 22.7888C15.3056 22.116 15.2488 21.4488 15.38 20.7784C16.3384 20.7584 17.2984 20.6016 18.2352 20.4088Z" fill="#EA869E"/>
</g>
</svg>
