<svg width="32" height="32" viewBox="0 0 32 32" fill="none" xmlns="http://www.w3.org/2000/svg">
<mask id="mask0_68_1551" style="mask-type:luminance" maskUnits="userSpaceOnUse" x="0" y="0" width="32" height="32">
<path d="M32 0H0V32H32V0Z" fill="white"/>
</mask>
<g mask="url(#mask0_68_1551)">
<path d="M32 0H0V32H32V0Z" fill="#F2D3B1"/>
<path d="M20.9192 10.0585C22.4312 9.86486 24.0904 10.0121 25.476 10.6825C26.16 11.0161 26.8152 11.5065 27.1736 12.1937C27.4856 12.7809 27.4864 13.5345 27.1608 14.1161C26.8232 14.7601 26.2 15.2441 25.5664 15.5753C24.4824 16.1369 23.2136 16.3617 22.0008 16.3473C21.0376 16.3489 20.0864 16.2025 19.184 15.8585C18.4664 15.5809 17.772 15.1641 17.2848 14.5577C16.8976 14.0681 16.6744 13.4273 16.8136 12.8033C16.9608 12.1185 17.4128 11.5745 17.9648 11.1657C18.8168 10.5385 19.8816 10.2073 20.9192 10.0585Z" fill="black"/>
<path d="M21.4384 10.4569C22.1104 10.4353 22.8176 10.4105 23.4784 10.5433C24.3256 10.6793 25.1944 10.9673 25.9024 11.4593C26.3416 11.7753 26.7368 12.1865 26.8904 12.7177C27.052 13.2625 26.8688 13.8481 26.5104 14.2737C26.0224 14.8705 25.2656 15.2641 24.5464 15.5081C23.7552 15.7689 22.9136 15.9145 22.08 15.8953C21.2632 15.9169 20.44 15.7849 19.6616 15.5393C18.9264 15.2953 18.1856 14.9241 17.6792 14.3209C17.336 13.9177 17.1272 13.3249 17.2904 12.8033C17.4112 12.2793 17.8256 11.8385 18.2456 11.5265C19.1576 10.8657 20.3312 10.5617 21.4384 10.4569Z" fill="white"/>
<path d="M7.55831 11.1008C8.86391 10.9176 10.2967 11.028 11.4863 11.632C12.1055 11.9512 12.7199 12.4664 12.9231 13.1576C13.1095 13.7256 12.9095 14.3368 12.5511 14.7912C12.0487 15.412 11.3295 15.7856 10.5799 16.024C9.41431 16.384 8.14711 16.4248 6.95671 16.1648C6.16631 15.9848 5.35511 15.6472 4.78391 15.0536C4.40711 14.6736 4.15031 14.1488 4.19591 13.604C4.23911 13.0264 4.59431 12.512 5.03031 12.1496C5.73511 11.556 6.65991 11.2456 7.55831 11.1008Z" fill="black"/>
<path d="M7.39989 11.5936C8.64949 11.3536 10.0335 11.452 11.1943 11.9976C11.7031 12.2392 12.2687 12.6584 12.4535 13.2136C12.6199 13.664 12.4823 14.1496 12.1879 14.512C11.8167 14.9728 11.2471 15.2952 10.6999 15.5C9.71189 15.8528 8.61829 15.9728 7.58069 15.812C6.83749 15.7088 6.06229 15.4696 5.44709 15.0296C5.02869 14.7176 4.67669 14.3072 4.65429 13.7616C4.63909 13.2136 4.98789 12.76 5.39749 12.4352C5.96789 11.9944 6.69749 11.732 7.39989 11.5936Z" fill="white"/>
<path d="M25.0584 11.7761C25.228 11.6489 25.4304 11.7505 25.5344 11.9089C25.7256 12.2297 25.7248 12.6769 25.7576 13.0401C25.7744 13.3913 25.7968 13.8113 25.66 14.1401C25.5016 14.4657 25.0672 14.2473 24.964 13.9961C24.7816 13.4881 24.7888 12.8961 24.8296 12.3641C24.8632 12.1753 24.8808 11.8889 25.0584 11.7761ZM11.028 12.3257C11.2024 12.3681 11.2528 12.6273 11.2928 12.7761C11.3584 13.1785 11.4032 13.5961 11.3776 14.0033C11.3512 14.2065 11.3224 14.4585 11.128 14.5737C10.9624 14.6769 10.7864 14.5713 10.7 14.4193C10.5344 14.1121 10.5272 13.7009 10.5168 13.3601C10.5216 13.0113 10.508 12.6617 10.696 12.3553C10.8112 12.3241 10.908 12.2785 11.028 12.3257Z" fill="black"/>
<path d="M24.2639 3.89524C25.3887 4.45844 26.4839 5.28324 27.1895 6.33764C27.3535 6.57364 27.0775 6.83684 26.8511 6.66964C26.0063 6.14644 25.0719 5.77684 24.0943 5.59604C21.2415 5.04724 18.1367 6.00724 16.2359 8.23844C16.1023 8.40244 15.9135 8.52564 15.7335 8.33844C15.5991 8.13044 15.5519 7.85444 15.4695 7.62244C15.3159 7.99924 15.1607 8.38244 14.9727 8.74404C14.8487 9.00244 14.4927 8.83364 14.4103 8.63044C14.1655 8.08004 13.9135 7.53124 13.6887 6.97204C13.6895 7.42244 13.6895 7.87204 13.6919 8.32244C13.6767 8.48724 13.7135 8.67044 13.5231 8.74004C13.3583 8.75844 13.1743 8.65764 13.0991 8.50724C12.8383 8.03684 12.5999 7.55284 12.3399 7.08164C12.4167 7.52244 12.5479 7.96084 12.5879 8.40564C12.5975 8.56084 12.4055 8.68084 12.2663 8.59444C10.7831 8.00244 9.2015 7.67524 7.5999 7.78724C6.5999 7.86084 5.5087 8.15764 4.7199 8.80164C4.47269 8.98884 4.30389 9.24244 4.08229 9.45364C3.95029 9.51124 3.82069 9.43444 3.69189 9.40164C3.69829 9.24884 3.7007 9.10164 3.7503 8.95524C4.2991 7.30164 5.38469 5.77124 6.94869 4.94724C8.03349 4.36164 9.3623 4.22484 10.5183 4.67924C11.4695 5.04324 12.1943 5.74484 12.7319 6.59524C12.9167 6.36804 13.0719 6.11284 13.2719 5.89844C13.4015 5.77364 13.6415 5.77444 13.7223 5.95604C13.9239 6.36804 14.0967 6.79684 14.2807 7.21844C14.3999 6.62484 14.5255 6.03364 14.6351 5.43924C14.6615 5.31924 14.6831 5.18084 14.7615 5.08324C14.8935 4.98324 14.9935 5.06084 15.1335 5.09124C15.1551 5.16004 15.1759 5.22804 15.1975 5.29604C15.3639 4.91604 15.5775 4.56724 15.8727 4.27364C16.6007 3.51924 17.6183 3.13364 18.6327 2.95524C20.5407 2.66004 22.5415 3.04484 24.2639 3.89524Z" fill="black"/>
<path d="M19.6159 18.7032C19.6551 19.2536 19.5519 19.7768 19.4911 20.32C19.2687 22.2552 18.7407 24.156 17.9591 25.9384C17.6671 26.5248 17.4199 27.1976 16.8431 27.5656C16.5031 27.8104 16.0191 27.7072 15.6751 27.524C14.9159 27.1488 14.4631 26.5416 13.9335 25.908C13.0559 24.8352 12.4255 23.6416 11.8495 22.3872C11.5647 21.732 11.3031 21.0672 11.0295 20.408C10.9599 20.2376 10.9359 20.0808 11.1151 19.9736C11.4927 19.9728 11.8599 20.0928 12.2399 20.0944C12.9831 20.1136 13.7391 20.1264 14.4783 20.0288C16.0767 19.8456 17.6495 19.3648 19.1175 18.7136C19.2879 18.628 19.4399 18.6656 19.6159 18.7032Z" fill="black"/>
<path d="M19.1944 19.1992C19.04 20.412 18.876 21.6152 18.5536 22.7976C18.1784 24.1392 17.732 25.5048 17.0296 26.7144C16.856 26.9896 16.6064 27.3016 16.2384 27.2352C15.644 27.1112 15.1128 26.596 14.744 26.1368C13.9536 25.2592 13.3128 24.276 12.7752 23.2264C12.2848 22.3368 11.924 21.3952 11.52 20.4648C11.904 20.5 12.288 20.5288 12.672 20.5608C12.7624 21.036 13.0392 21.4816 13.348 21.8464C13.7544 22.3216 14.3264 22.6304 14.9584 22.644C15.4584 22.6048 15.9248 22.3936 16.2928 22.0552C16.9344 21.4672 17.2496 20.6896 17.4512 19.8608C18.0424 19.6624 18.6224 19.4488 19.1944 19.1992Z" fill="#8F2E45"/>
<path d="M16.932 20.0095C16.728 20.7127 16.3648 21.4807 15.736 21.8967C15.2984 22.1983 14.7192 22.2479 14.2504 21.9863C13.6896 21.6775 13.3776 21.1463 13.136 20.5743C14.424 20.5479 15.6968 20.3887 16.932 20.0095Z" fill="white"/>
</g>
</svg>
