<svg width="32" height="32" viewBox="0 0 32 32" fill="none" xmlns="http://www.w3.org/2000/svg">
<mask id="mask0_68_1568" style="mask-type:luminance" maskUnits="userSpaceOnUse" x="0" y="0" width="32" height="32">
<path d="M32 0H0V32H32V0Z" fill="white"/>
</mask>
<g mask="url(#mask0_68_1568)">
<path d="M32 0H0V32H32V0Z" fill="#763900"/>
<path d="M17.2665 12.2087C17.4673 12.2223 17.6681 12.3199 17.8569 12.3879C18.6033 12.6799 19.3609 12.8719 20.1385 13.0575C21.8129 13.4623 23.5585 13.7583 25.2841 13.6039C25.8729 13.5255 26.4601 13.4135 27.0433 13.2999C27.2457 13.2447 27.4793 13.3599 27.4569 13.5911C27.4121 14.1159 27.3265 14.6495 27.1449 15.1463C26.7233 16.3327 25.8561 17.3487 24.7537 17.9551C23.9697 18.3959 23.0585 18.6199 22.1601 18.6023C20.7481 18.5983 19.3729 17.9783 18.4113 16.9479C17.8329 16.3351 17.4529 15.5975 17.1809 14.8055C17.2801 15.4439 17.3817 16.0663 17.6817 16.6479C17.9241 17.1287 18.2625 17.5215 18.6105 17.9271C18.5185 18.0335 18.4073 18.1879 18.2521 18.0855C17.9633 17.8743 17.7489 17.5447 17.5433 17.2567C17.0473 16.5399 16.8433 15.6935 16.7433 14.8391C16.6641 14.2575 16.7489 13.6367 16.8449 13.0607C16.9057 12.7783 17.0001 12.3671 17.2665 12.2087ZM12.5689 12.6271C12.7449 12.6863 12.8225 12.8687 12.9001 13.0215C13.3457 13.9863 13.5161 15.1239 13.2801 16.1663C13.1553 16.8431 12.8369 17.5383 12.3185 18.0031C12.1913 18.1335 12.0433 18.1255 11.8745 18.1207C11.864 18.0369 11.8626 17.9521 11.8705 17.8679C12.0409 17.6623 12.2537 17.5071 12.3945 17.2735C12.8025 16.6519 12.8905 15.9767 12.9585 15.2535C12.7665 16.0655 12.4033 16.8175 11.8193 17.4199C11.1553 18.1207 10.2553 18.5903 9.30008 18.7311C8.16968 18.9071 6.97528 18.6239 6.05208 17.9455C5.32408 17.4231 4.77368 16.6719 4.47608 15.8287C4.42648 15.6775 4.37768 15.4799 4.43288 15.3255C4.56088 15.2103 4.71448 15.1759 4.88168 15.1631C5.58568 15.1159 6.26808 14.9535 6.96808 14.8079C7.56568 14.6847 8.13928 14.4967 8.72328 14.3231C9.48888 14.0735 10.2393 13.7071 10.9753 13.3791C11.3921 13.1927 11.7921 12.9735 12.1897 12.7503C12.3025 12.6943 12.4393 12.6095 12.5689 12.6271Z" fill="black"/>
<path d="M17.5113 12.7256C17.9057 12.8728 18.2905 13.0304 18.6985 13.1376C19.8065 13.432 20.9449 13.7616 22.0825 13.9072C22.2881 13.9392 22.4929 13.9832 22.6977 14.024C22.7505 14.6056 23.0017 15.1336 23.4849 15.4752C24.2409 16.0304 25.3833 15.9144 25.9865 15.1864C26.3185 14.8136 26.4305 14.3616 26.4625 13.8736C26.6361 13.8448 26.8089 13.8152 26.9825 13.7864C26.8313 15.5008 25.7345 17.068 24.1449 17.7448C23.1833 18.1688 22.1233 18.2672 21.1009 18.0152C19.8817 17.72 18.7937 16.928 18.1505 15.8496C17.6377 14.9936 17.3857 13.9632 17.4777 12.968C17.4881 12.8872 17.4993 12.8064 17.5113 12.7256ZM12.3825 13.14C12.5585 13.7368 12.6497 14.3432 12.5345 14.9624C12.3908 15.9162 11.9034 16.7845 11.1641 17.404C10.4417 18.016 9.50326 18.3384 8.55846 18.3328C7.78406 18.3072 7.01846 18.0624 6.38246 17.6176C5.67446 17.1232 5.15766 16.416 4.88086 15.6C6.06646 15.4536 7.25526 15.2408 8.40006 14.8952C8.62006 15.672 9.25366 16.2656 10.0729 16.3312C10.8881 16.4208 11.6737 15.9408 11.9921 15.192C12.2337 14.624 12.1769 13.9296 11.8433 13.408C12.0217 13.3168 12.2001 13.2208 12.3825 13.14Z" fill="white"/>
<path d="M21.2824 4.51995C23.2584 4.59515 25.1256 5.23755 26.8384 6.19915C27.0192 6.30475 27.232 6.39835 27.3816 6.54555C27.4856 6.73675 27.3512 6.95595 27.1256 6.88075C25.7992 6.38395 24.4408 6.11035 23.0408 5.91915C21.4168 5.73195 19.8472 5.62474 18.2248 5.90874C17.9688 5.94394 17.6752 6.08155 17.4184 6.03595C17.2056 5.90075 17.3224 5.54794 17.5216 5.44634C18.612 4.69994 19.9848 4.47835 21.2824 4.51995ZM10.3192 5.99355C10.6 6.04475 10.8472 6.14715 11.0896 6.29595C11.0776 6.39195 11.0688 6.48795 11.0632 6.58555C10.8472 6.64475 10.6264 6.67515 10.404 6.69275C9.3504 6.78475 8.288 7.10155 7.2992 7.46795C6.3208 7.84795 5.3168 8.31915 4.484 8.96475C4.2584 9.12715 4.1536 9.35035 3.8376 9.32235C3.7976 9.25035 3.7576 9.17914 3.7168 9.10874C3.788 8.98154 3.8512 8.85515 3.9376 8.73755C4.7016 7.68395 5.8288 6.87995 7.0264 6.38955C8.0424 5.97755 9.2352 5.74555 10.3192 5.99355Z" fill="black"/>
<path d="M16.1567 19.1751C16.5335 19.1287 16.9775 19.1791 17.2535 19.4679C17.5559 19.7807 17.5855 20.2215 17.5111 20.6303C17.2999 21.5743 16.4823 22.3448 15.5247 22.492C14.9247 22.6112 14.2791 22.4679 13.7527 22.1679C13.3407 21.9351 13.0439 21.5567 12.8663 21.1231C12.7615 20.8599 12.7367 20.5448 12.8319 20.276C12.9359 20.0272 13.1615 19.876 13.4191 19.8208C13.8719 19.6736 14.3519 19.8415 14.7495 20.0639C15.1159 19.6567 15.5951 19.2503 16.1567 19.1751Z" fill="black"/>
<path d="M16.1207 19.656C16.3839 19.5736 16.7111 19.6104 16.9207 19.7984C17.0855 19.9608 17.0895 20.2696 17.0575 20.4832C16.9103 21.2656 16.2351 21.9024 15.4519 22.0288C14.9303 22.1336 14.3967 22.0024 13.9447 21.7344C13.6007 21.5328 13.3495 21.176 13.2399 20.7968C13.1839 20.6008 13.2111 20.3912 13.4031 20.2864C13.6103 20.2 13.8639 20.2048 14.0815 20.2472C14.3599 20.3032 14.5455 20.48 14.7991 20.5928C14.9535 20.5856 15.0087 20.4816 15.1039 20.3816C15.3695 20.0664 15.7191 19.772 16.1207 19.656Z" fill="#8F2E45"/>
</g>
</svg>
