<svg width="32" height="32" viewBox="0 0 32 32" fill="none" xmlns="http://www.w3.org/2000/svg">
<g clip-path="url(#clip0_68_1582)">
<mask id="mask0_68_1582" style="mask-type:luminance" maskUnits="userSpaceOnUse" x="0" y="0" width="32" height="32">
<path d="M32 0H0V32H32V0Z" fill="white"/>
</mask>
<g mask="url(#mask0_68_1582)">
<path d="M32 0H0V32H32V0Z" fill="#9E5622"/>
<path d="M21.7039 8.19035C22.8007 8.08075 23.9271 8.32394 24.8767 8.88394C25.9359 9.50394 26.7479 10.5007 27.1575 11.6567C27.4287 12.4639 27.5343 13.3591 27.3823 14.2007C27.1951 15.4671 26.5111 16.6319 25.5199 17.4375C24.1687 18.5527 22.2815 18.8959 20.6183 18.3535C19.3759 17.9503 18.3023 17.0735 17.6703 15.9287C17.0775 14.8935 16.8951 13.6727 17.0831 12.4999C17.2655 11.4319 17.7823 10.4351 18.5551 9.67595C19.4015 8.83675 20.5167 8.30795 21.7039 8.19035Z" fill="black"/>
<path d="M21.6208 8.66076C22.8328 8.51276 24.044 8.81196 25.0304 9.53196C26.264 10.416 27.0304 11.92 26.988 13.44C26.9936 15.2552 25.8592 16.9888 24.1992 17.7216C23.336 18.1096 22.3752 18.2536 21.44 18.0824C20.1288 17.8728 18.92 17.0728 18.212 15.9488C17.764 15.2472 17.5128 14.4336 17.4624 13.604C17.4144 12.4472 17.8008 11.2712 18.5352 10.3752C19.2904 9.43516 20.4264 8.80956 21.6208 8.66076Z" fill="white"/>
<path d="M8.17995 10.0071C9.19995 9.90151 10.2496 10.1623 11.0984 10.7383C12.0711 11.3903 12.7551 12.4391 12.9632 13.5911C13.0775 14.3239 13.0487 15.0695 12.808 15.7751C12.4871 16.7511 11.8119 17.5999 10.9343 18.1351C10.0887 18.6535 9.06475 18.8791 8.08075 18.7447C6.81755 18.5991 5.65195 17.8647 4.95835 16.8015C4.51515 16.1359 4.28155 15.3591 4.22955 14.5631C4.20555 13.5791 4.49035 12.5927 5.07515 11.7959C5.79835 10.7935 6.94955 10.1319 8.17995 10.0071Z" fill="black"/>
<path d="M7.94 10.5031C8.84 10.3399 9.7728 10.5015 10.5688 10.9511C12.0072 11.7463 12.844 13.4791 12.5096 15.0975C12.3184 16.1671 11.664 17.1271 10.748 17.7087C10.188 18.0703 9.5416 18.2703 8.8792 18.3223C7.2928 18.4303 5.7352 17.5039 5.0688 16.0607C4.4488 14.7663 4.6088 13.1799 5.472 12.0343C6.0624 11.2311 6.9608 10.6799 7.94 10.5031Z" fill="white"/>
<path d="M19.86 11.536C20.6832 11.4304 21.504 11.8856 21.8312 12.652C22.2296 13.5136 21.8808 14.588 21.0608 15.0592C20.5136 15.3912 19.78 15.4048 19.216 15.1064C18.5544 14.7672 18.1304 14.024 18.1976 13.2784C18.252 12.388 18.9752 11.6368 19.86 11.536ZM6.36239 12.708C6.83439 12.5464 7.35279 12.6192 7.78239 12.8632C8.20959 13.12 8.50799 13.5376 8.60559 14.028C8.81039 14.956 8.14479 15.9328 7.20239 16.076C6.37679 16.2456 5.49839 15.744 5.23119 14.9456C4.91759 14.0552 5.44959 12.9784 6.36239 12.708Z" fill="black"/>
<path d="M24.264 3.89524C25.3888 4.45844 26.484 5.28324 27.1896 6.33764C27.3536 6.57364 27.0776 6.83684 26.8512 6.66964C26.0064 6.14644 25.072 5.77684 24.0944 5.59604C21.2416 5.04724 18.1368 6.00724 16.236 8.23844C16.1024 8.40244 15.9136 8.52564 15.7336 8.33844C15.5992 8.13044 15.552 7.85444 15.4696 7.62244C15.316 7.99924 15.1608 8.38244 14.9728 8.74404C14.8488 9.00244 14.4928 8.83364 14.4104 8.63044C14.1656 8.08004 13.9136 7.53124 13.6888 6.97204C13.6896 7.42244 13.6896 7.87204 13.692 8.32244C13.6768 8.48724 13.7136 8.67044 13.5232 8.74004C13.3584 8.75844 13.1744 8.65764 13.0992 8.50724C12.8384 8.03684 12.6 7.55284 12.34 7.08164C12.4168 7.52244 12.548 7.96084 12.588 8.40564C12.5976 8.56084 12.4056 8.68084 12.2664 8.59444C10.7832 8.00244 9.20162 7.67524 7.60002 7.78724C6.60002 7.86084 5.50882 8.15764 4.72002 8.80164C4.47282 8.98884 4.30402 9.24244 4.08242 9.45364C3.95042 9.51124 3.82082 9.43444 3.69202 9.40164C3.69842 9.24884 3.70082 9.10164 3.75042 8.95524C4.29922 7.30164 5.38482 5.77124 6.94882 4.94724C8.03362 4.36164 9.36242 4.22484 10.5184 4.67924C11.4696 5.04324 12.1944 5.74484 12.732 6.59524C12.9168 6.36804 13.072 6.11284 13.272 5.89844C13.4016 5.77364 13.6416 5.77444 13.7224 5.95604C13.924 6.36804 14.0968 6.79684 14.2808 7.21844C14.4 6.62484 14.5256 6.03364 14.6352 5.43924C14.6616 5.31924 14.6832 5.18084 14.7616 5.08324C14.8936 4.98324 14.9936 5.06084 15.1336 5.09124C15.1552 5.16004 15.176 5.22804 15.1976 5.29604C15.364 4.91604 15.5776 4.56724 15.8728 4.27364C16.6008 3.51924 17.6184 3.13364 18.6328 2.95524C20.5408 2.66004 22.5416 3.04484 24.264 3.89524Z" fill="black"/>
<path d="M19.76 19.0079C21.2008 19.0071 22.7384 19.1799 24.0792 19.7351C19.9032 20.3087 15.5072 20.9407 11.3608 21.5111C12.0032 20.9519 12.7752 20.5255 13.556 20.1935C14.5344 19.7855 15.6568 19.4591 16.7232 19.5991C16.8016 19.6111 16.872 19.6023 16.9336 19.5719C17.7528 19.0991 18.8352 19.0359 19.76 19.0079Z" fill="#D31E1E"/>
<path d="M24.0791 19.7351C24.2727 19.8151 24.2327 20.0071 24.1895 20.1711C23.6471 21.2391 22.9031 22.1855 21.9215 22.8831C20.5463 23.8823 18.8111 24.3551 17.1199 24.2895C14.9751 24.2127 12.8743 23.3263 11.2447 21.9447C11.2127 21.7511 11.2055 21.6479 11.3607 21.5111C15.5071 20.9407 19.9031 20.3087 24.0791 19.7351Z" fill="black"/>
<path d="M24.1897 20.1711C24.1009 20.5399 24.0417 20.9063 23.8977 21.2607C23.4689 22.3759 22.6137 23.2927 21.6273 23.9455C20.5401 24.6551 19.2865 25.0775 17.9985 25.2167C16.4257 25.3839 14.7353 25.1295 13.3577 24.3223C12.4169 23.7767 11.6481 22.9631 11.2449 21.9447C12.8745 23.3263 14.9753 24.2127 17.1201 24.2895C18.8113 24.3551 20.5465 23.8823 21.9217 22.8831C22.9033 22.1855 23.6473 21.2391 24.1897 20.1711Z" fill="#D31E1E"/>
<path d="M23.5888 20.2808C22.9352 21.4848 21.9104 22.4776 20.6792 23.08C19.6824 23.5696 18.5512 23.8352 17.44 23.8152C15.4632 23.8296 13.5192 23.0944 11.9536 21.9056C15.788 21.3784 19.772 20.8016 23.5888 20.2808Z" fill="white"/>
</g>
</g>
<defs>
<clipPath id="clip0_68_1582">
<rect width="32" height="32" fill="white"/>
</clipPath>
</defs>
</svg>
