<svg width="32" height="32" viewBox="0 0 32 32" fill="none" xmlns="http://www.w3.org/2000/svg">
<mask id="mask0_68_1348" style="mask-type:luminance" maskUnits="userSpaceOnUse" x="0" y="0" width="32" height="32">
<path d="M32 0H0V32H32V0Z" fill="white"/>
</mask>
<g mask="url(#mask0_68_1348)">
<path d="M32 0H0V32H32V0Z" fill="#F2D3B1"/>
<path d="M22.0801 8.16719C23.2857 8.13119 24.4969 8.52399 25.4449 9.27199C26.9225 10.4144 27.6969 12.356 27.3833 14.2016C27.3041 14.8104 27.0665 15.3504 26.8369 15.912C26.7225 15.9592 26.6049 16.012 26.4849 16.0416C26.2337 16.04 25.9777 15.9288 25.7353 15.8656C24.4945 15.5024 23.2113 15.3248 21.9201 15.3112C20.8561 15.3472 19.7369 15.5032 18.7729 15.976C18.5465 16.0784 18.3241 16.2152 18.0857 16.2848C17.8041 16.2648 17.7369 16.0328 17.6105 15.8256C17.0489 14.7752 16.8865 13.5456 17.1057 12.3792C17.3113 11.3184 17.8505 10.3376 18.6377 9.59599C19.5657 8.71359 20.7985 8.20079 22.0801 8.16719Z" fill="black"/>
<path d="M22.2403 8.62806C23.3179 8.61286 24.3707 9.00086 25.2107 9.66886C25.9779 10.2793 26.5467 11.1361 26.8107 12.0809C27.1491 13.2377 27.0107 14.4905 26.4699 15.5641C25.9787 15.4905 25.5211 15.3129 25.0347 15.2129C23.6963 14.9193 22.2851 14.7729 20.9203 14.9345C19.9315 15.0417 19.0011 15.3457 18.1331 15.8289C17.5843 14.8705 17.3275 13.7305 17.5243 12.6353C17.6843 11.6225 18.1803 10.6697 18.9179 9.95766C19.7939 9.10806 21.0171 8.60726 22.2403 8.62806Z" fill="white"/>
<path d="M8.18011 10.0071C9.20011 9.90313 10.2497 10.1615 11.0985 10.7383C12.0825 11.3975 12.7737 12.4663 12.9705 13.6351C13.0705 14.3031 13.0489 15.0167 12.8433 15.6639C12.5377 16.6863 11.8457 17.5799 10.9345 18.1351C10.1121 18.6399 9.11611 18.8687 8.15691 18.7535C6.88571 18.6287 5.70172 17.9095 4.99132 16.8503C4.52892 16.1751 4.28092 15.3783 4.23132 14.5639C4.20252 13.5415 4.51531 12.5167 5.14331 11.7055C5.86971 10.7519 6.98731 10.1287 8.18011 10.0071Z" fill="black"/>
<path d="M7.80006 10.5328C8.69926 10.3328 9.64966 10.4648 10.4633 10.8936C11.8505 11.6064 12.7113 13.1672 12.5673 14.72C12.4769 15.624 12.0953 16.4864 11.4545 17.1336C10.7977 17.8144 9.90086 18.2312 8.96006 18.3152C7.40806 18.4568 5.86006 17.596 5.14486 16.2144C4.48006 14.964 4.55686 13.3976 5.34166 12.2192C5.90166 11.3624 6.79926 10.7464 7.80006 10.5328Z" fill="white"/>
<path d="M19.2347 12.2192C19.9195 12.0424 20.6563 12.5032 20.7787 13.2024C20.9275 13.8688 20.4683 14.556 19.8027 14.688C19.0659 14.8616 18.2971 14.2832 18.2835 13.5208C18.2291 12.9192 18.6563 12.3624 19.2347 12.2192ZM9.95462 13.0888C10.7162 12.8296 11.5586 13.4416 11.5818 14.236C11.6466 14.9432 11.0338 15.6008 10.3226 15.576C9.63303 15.6072 9.03943 15.0048 9.04583 14.3216C9.02583 13.764 9.42182 13.2416 9.95462 13.0888ZM25.5857 16.8544C25.6697 16.8816 25.7545 16.9096 25.8385 16.9392C25.8041 17.0712 25.8169 17.204 25.7009 17.2936C25.1497 17.752 24.4105 18.104 23.6809 18.0864C23.3737 18.08 22.9921 18.0064 22.7641 17.784C22.7433 17.6904 22.7377 17.592 22.7289 17.4968C22.8033 17.472 22.8785 17.4464 22.9537 17.4216C23.3153 17.5944 23.6793 17.6992 24.0817 17.5984C24.6785 17.496 25.0889 17.1576 25.5857 16.8544ZM5.44511 18.0608C5.62591 18.0216 5.75311 18.1776 5.88751 18.2704C6.63951 18.8904 7.5947 19.1808 8.5611 19.1864C9.0275 19.1944 9.42831 19.0064 9.89711 19.0792C9.85631 19.2696 9.89231 19.4296 9.66271 19.484C8.21471 19.8736 6.5459 19.4976 5.4315 18.4848C5.2899 18.3744 5.25231 18.1384 5.44511 18.0608Z" fill="black"/>
<path d="M9.44495 4.09121C9.98975 4.10641 10.5793 4.32 10.8793 4.8016C10.9633 4.9176 10.9297 5.09601 10.9369 5.23361C10.4338 5.24561 9.93775 5.26 9.44575 5.38C8.24095 5.6584 7.09775 6.2488 6.11455 6.992C5.44495 7.5024 4.80735 8.12 4.35855 8.8376C4.24415 9.0152 4.16575 9.24 4.01535 9.3888C3.91615 9.4096 3.80975 9.4112 3.70895 9.4168C3.70495 9.2752 3.69055 9.14 3.72575 9.0016C4.18335 7.3328 5.31215 5.8544 6.77535 4.9368C7.56175 4.4696 8.51375 4.05281 9.44495 4.09121ZM23.9618 7.17281C24.7946 7.30641 25.6578 7.48081 26.3626 7.97041L26.3458 8.35281C26.0202 8.48001 25.7626 8.34081 25.441 8.29041C24.8954 8.19441 24.3281 8.1904 23.7745 8.2016C21.4346 8.3072 19.1161 8.99281 17.057 10.1008C16.941 10.1512 16.8234 10.1856 16.7034 10.224C16.497 9.7952 16.4146 9.35121 16.693 8.93041C17.1034 8.31681 17.909 7.9392 18.5834 7.6952C20.2906 7.10641 22.1738 6.97521 23.9618 7.17281Z" fill="black"/>
<path d="M19.04 18.6745C20.1112 18.6553 21.3352 18.9513 22.128 19.7129C22.6056 20.1593 22.9056 20.7825 22.92 21.4393C22.9456 22.2561 22.6128 23.0057 22.1288 23.6457C21.4056 24.5937 20.3792 25.3033 19.2912 25.7713C18.7056 25.9985 18.1384 26.2281 17.5192 26.3505C16.1784 26.6073 14.7728 26.4641 13.5168 25.9257C12.3984 25.4449 11.3376 24.7865 10.452 23.9489C10.0184 23.5249 9.60555 23.0137 9.38955 22.4417C9.22715 22.0033 9.20235 21.4841 9.48715 21.0889C9.78315 20.6593 10.2864 20.4697 10.7816 20.3817C11.7896 20.2401 12.7376 20.4153 13.7072 20.6825C14.296 20.1337 14.9776 19.7177 15.7088 19.3857C16.748 18.9265 17.8992 18.6433 19.04 18.6745Z" fill="black"/>
<path d="M21.0775 19.5481C20.7999 19.7617 20.4911 19.9273 20.2111 20.1353C19.8671 20.4609 19.6039 21.0121 19.1895 21.2633C18.7767 21.3305 18.3495 20.9977 17.9751 21.1745C17.2351 21.4545 16.4719 21.6553 15.6959 21.8065C14.5647 22.0121 13.3375 22.1081 12.2047 21.8777C11.8615 21.7889 11.6351 21.9833 11.2879 22.0281C10.9383 21.6905 10.6855 21.2913 10.2695 21.0209C11.2903 20.5953 12.5703 20.8617 13.5999 21.1417C13.9135 21.2417 14.0831 20.9449 14.3039 20.7833C15.3823 19.9249 16.7183 19.3801 18.0823 19.1953C19.0951 19.0457 20.1335 19.1361 21.0775 19.5481Z" fill="white"/>
<path d="M21.5167 19.8328C22.0871 20.176 22.4487 20.8592 22.4623 21.52C22.4479 22.1152 22.2247 22.6392 21.9183 23.1392C21.4087 22.9344 20.8647 22.876 20.3191 22.9088C19.1703 22.98 18.0359 23.2624 16.9663 23.6824C16.2431 23.9736 15.5223 24.3408 14.9071 24.824C14.6055 25.0624 14.3911 25.3168 14.2063 25.6544C13.5871 25.4824 13.0383 25.1944 12.4839 24.876C11.6887 24.408 10.9623 23.8664 10.3639 23.1584C10.0623 22.7872 9.75989 22.3312 9.74149 21.8392C9.73029 21.6528 9.81429 21.4848 9.87909 21.3152C10.3119 21.6072 10.6279 22.0064 11.0167 22.3432C11.3367 22.616 11.7535 22.2912 12.1167 22.3496C12.5815 22.4264 13.0495 22.4624 13.5191 22.4888C15.1527 22.4688 16.7655 22.144 18.2911 21.5648C18.6239 21.6336 19.0823 21.7832 19.4087 21.6488C19.8023 21.4216 20.0983 20.9624 20.3831 20.616C20.5007 20.476 20.6879 20.3824 20.8399 20.2824C21.0727 20.1424 21.2783 19.9608 21.5167 19.8328Z" fill="#8F2E45"/>
<path d="M20.56 23.3744C20.9232 23.3656 21.276 23.4248 21.624 23.5264C20.8856 24.416 19.8304 25.0704 18.756 25.4768C17.4552 25.96 16.0176 26.1424 14.6592 25.792C14.8152 25.572 14.9864 25.368 15.2 25.2008C15.912 24.62 16.8168 24.2248 17.6792 23.9232C18.5992 23.6168 19.588 23.3896 20.56 23.3744Z" fill="#EA869E"/>
</g>
</svg>
