<svg width="32" height="32" viewBox="0 0 32 32" fill="none" xmlns="http://www.w3.org/2000/svg">
<mask id="mask0_68_1461" style="mask-type:luminance" maskUnits="userSpaceOnUse" x="0" y="0" width="32" height="32">
<path d="M32 0H0V32H32V0Z" fill="white"/>
</mask>
<g mask="url(#mask0_68_1461)">
<path d="M32 0H0V32H32V0Z" fill="#ECAD80"/>
<path d="M8.09927 10.0176C9.16327 9.88484 10.2681 10.1576 11.1481 10.772C12.1129 11.4384 12.7849 12.5 12.9737 13.6568C13.0689 14.3192 13.0481 15.0224 12.8433 15.6632C12.5273 16.7232 11.7945 17.6448 10.8345 18.1952C10.0337 18.6576 9.07607 18.864 8.15687 18.7536C6.86567 18.628 5.66567 17.8872 4.95847 16.8016C4.51527 16.1352 4.28167 15.3584 4.22967 14.5632C4.20567 13.5792 4.49047 12.5936 5.07447 11.7976C5.78087 10.8176 6.89847 10.1592 8.09927 10.0176Z" fill="black"/>
<path d="M7.9392 10.5033C9.49279 10.2113 11.128 10.9377 11.964 12.2761C12.4936 13.1153 12.7232 14.1841 12.4976 15.1585C12.292 16.2233 11.6208 17.1737 10.6984 17.7401C10.1496 18.0825 9.5224 18.2721 8.8792 18.3225C7.2936 18.4305 5.736 17.5049 5.0696 16.0617C4.4488 14.7673 4.608 13.1809 5.4712 12.0345C6.0616 11.2321 6.96 10.6809 7.9392 10.5033Z" fill="white"/>
<path d="M24.8794 12.2328C25.9258 12.1856 27.0378 12.1312 28.0674 12.3512C28.2394 12.3976 28.2994 12.4576 28.2506 12.6456C28.0826 12.7864 27.7634 12.9096 27.7042 13.1352C27.7018 13.6152 28.4282 13.6072 28.4794 13.9992C28.4562 14.2352 28.2858 14.2656 28.0818 14.2504C27.4682 14.2 26.8562 14.1512 26.2402 14.1376C24.9586 14.1304 23.6786 14.1192 22.3994 14.208C21.7946 14.264 21.1826 14.2584 20.5778 14.3016C19.689 14.384 18.8074 14.4064 17.9266 14.5704C17.713 14.6096 17.4858 14.6592 17.2682 14.6552C17.1074 14.556 17.0242 14.212 17.2234 14.1064C17.6498 13.8648 18.1298 13.6984 18.5978 13.5568C19.8042 13.1592 21.0586 12.8968 22.2986 12.6256C23.1498 12.432 24.013 12.3248 24.8794 12.2328ZM10.1146 12.6144C10.3914 12.5424 10.6674 12.5352 10.9466 12.5976C11.6546 12.7648 12.1818 13.432 12.1714 14.1616C12.1906 15.0512 11.369 15.8552 10.4762 15.772C9.73379 15.7304 9.07779 15.1424 8.97539 14.4024C8.83859 13.6184 9.35379 12.8288 10.1146 12.6144Z" fill="black"/>
<path d="M20.1568 2.42715C21.8744 2.16235 23.5808 2.67835 25.0048 3.63435C25.9696 4.28955 26.8368 5.20875 27.3224 6.27675C27.4104 6.51355 27.2984 6.57515 27.1216 6.69835C26.8056 6.51755 26.572 6.25195 26.284 6.03515C25.2448 5.25275 24.0416 4.72475 22.7816 4.41515C21.5872 4.13435 20.3368 4.01115 19.1176 4.19115C18.7352 4.22395 18.3752 4.34475 18 4.40475C17.8072 4.42075 17.592 4.30795 17.6632 4.08155C17.8152 3.74955 18.0016 3.40155 18.2712 3.14955C18.7544 2.69995 19.5224 2.52155 20.1568 2.42715ZM8.31998 8.54635C9.39038 8.48075 10.4264 8.49755 11.4424 8.88475C11.9104 9.07435 12.364 9.35755 12.5568 9.84875C12.6672 10.1935 12.6296 10.5583 12.4184 10.8575C12.0264 10.7967 11.6664 10.6495 11.284 10.5519C9.43358 10.0455 7.50878 9.91115 5.60078 10.0751C5.21038 10.1015 4.81198 10.2375 4.42318 10.2175C4.28078 10.1791 4.32958 10.0415 4.34558 9.93435C4.41598 9.73355 4.63198 9.62555 4.80638 9.52715C5.90638 8.94715 7.09038 8.67515 8.31998 8.54635Z" fill="black"/>
<path d="M16.1567 19.1751C16.5335 19.1287 16.9775 19.1791 17.2535 19.4679C17.5559 19.7807 17.5855 20.2215 17.5111 20.6303C17.2999 21.5743 16.4823 22.3448 15.5247 22.492C14.9247 22.6112 14.2791 22.4679 13.7527 22.1679C13.3407 21.9351 13.0439 21.5567 12.8663 21.1231C12.7615 20.8599 12.7367 20.5448 12.8319 20.276C12.9359 20.0272 13.1615 19.876 13.4191 19.8208C13.8719 19.6736 14.3519 19.8415 14.7495 20.0639C15.1159 19.6567 15.5951 19.2503 16.1567 19.1751Z" fill="black"/>
<path d="M16.1207 19.656C16.3839 19.5736 16.7111 19.6104 16.9207 19.7984C17.0855 19.9608 17.0895 20.2696 17.0575 20.4832C16.9103 21.2656 16.2351 21.9024 15.4519 22.0288C14.9303 22.1336 14.3967 22.0024 13.9447 21.7344C13.6007 21.5328 13.3495 21.176 13.2399 20.7968C13.1839 20.6008 13.2111 20.3912 13.4031 20.2864C13.6103 20.2 13.8639 20.2048 14.0815 20.2472C14.3599 20.3032 14.5455 20.48 14.7991 20.5928C14.9535 20.5856 15.0087 20.4816 15.1039 20.3816C15.3695 20.0664 15.7191 19.772 16.1207 19.656Z" fill="#8F2E45"/>
</g>
</svg>
