<svg width="24" height="24" viewBox="0 0 24 24" fill="none" xmlns="http://www.w3.org/2000/svg">
<path d="M3.29697 5.234C3.40746 4.7628 3.64733 4.33181 3.98956 3.98959C4.33179 3.64736 4.76277 3.40749 5.23397 3.297C6.06667 3.10168 6.93327 3.10168 7.76597 3.297C8.23717 3.40749 8.66815 3.64736 9.01038 3.98959C9.35261 4.33181 9.59248 4.7628 9.70297 5.234C9.89797 6.067 9.89797 6.934 9.70297 7.766C9.59248 8.2372 9.35261 8.66818 9.01038 9.01041C8.66815 9.35263 8.23717 9.5925 7.76597 9.703C6.93297 9.898 6.06597 9.898 5.23397 9.703C4.76277 9.5925 4.33179 9.35263 3.98956 9.01041C3.64733 8.66818 3.40746 8.2372 3.29697 7.766C3.10169 6.93329 3.10169 6.0667 3.29697 5.234Z" stroke="black" stroke-width="1.5"/>
<path d="M3.29697 16.2339C3.40746 15.7627 3.64733 15.3318 3.98956 14.9895C4.33179 14.6473 4.76277 14.4074 5.23397 14.2969C6.06668 14.1017 6.93326 14.1017 7.76597 14.2969C8.23717 14.4074 8.66815 14.6473 9.01038 14.9895C9.35261 15.3318 9.59248 15.7627 9.70297 16.2339C9.89797 17.0669 9.89797 17.9339 9.70297 18.7659C9.59248 19.2371 9.35261 19.6681 9.01038 20.0104C8.66815 20.3526 8.23717 20.5924 7.76597 20.7029C6.93297 20.8979 6.06597 20.8979 5.23397 20.7029C4.76277 20.5924 4.33179 20.3526 3.98956 20.0104C3.64733 19.6681 3.40746 19.2371 3.29697 18.7659C3.10169 17.9332 3.10169 17.0666 3.29697 16.2339Z" stroke="black" stroke-width="1.5"/>
<path d="M14.2969 5.234C14.4074 4.7628 14.6473 4.33181 14.9895 3.98959C15.3318 3.64736 15.7627 3.40749 16.2339 3.297C17.0666 3.10168 17.9332 3.10168 18.7659 3.297C19.2371 3.40749 19.6681 3.64736 20.0104 3.98959C20.3526 4.33181 20.5924 4.7628 20.7029 5.234C20.8979 6.067 20.8979 6.934 20.7029 7.766C20.5924 8.2372 20.3526 8.66818 20.0104 9.01041C19.6681 9.35263 19.2371 9.5925 18.7659 9.703C17.9329 9.898 17.0659 9.898 16.2339 9.703C15.7627 9.5925 15.3318 9.35263 14.9895 9.01041C14.6473 8.66818 14.4074 8.2372 14.2969 7.766C14.1017 6.93329 14.1017 6.06671 14.2969 5.234Z" stroke="black" stroke-width="1.5"/>
<path d="M14.2969 16.2339C14.4074 15.7627 14.6473 15.3318 14.9895 14.9895C15.3318 14.6473 15.7627 14.4074 16.2339 14.2969C17.0667 14.1017 17.9332 14.1017 18.7659 14.2969C19.2371 14.4074 19.6681 14.6473 20.0104 14.9895C20.3526 15.3318 20.5924 15.7627 20.7029 16.2339C20.8979 17.0669 20.8979 17.9339 20.7029 18.7659C20.5924 19.2371 20.3526 19.6681 20.0104 20.0104C19.6681 20.3526 19.2371 20.5924 18.7659 20.7029C17.9329 20.8979 17.0659 20.8979 16.2339 20.7029C15.7627 20.5924 15.3318 20.3526 14.9895 20.0104C14.6473 19.6681 14.4074 19.2371 14.2969 18.7659C14.1017 17.9332 14.1017 17.0667 14.2969 16.2339Z" stroke="black" stroke-width="1.5"/>
</svg>
